<svg width="385" height="240" viewBox="0 0 385 240" fill="none" xmlns="http://www.w3.org/2000/svg">
<mask id="mask0_291_1272" style="mask-type:luminance" maskUnits="userSpaceOnUse" x="0" y="0" width="385" height="240">
<path d="M384.4 0H0.400024V240H384.4V0Z" fill="white"/>
</mask>
<g mask="url(#mask0_291_1272)">
<path d="M-68.72 308.67C-66.512 265.2 -40.656 224.25 -1.26397 201.24C18.704 189.57 41.84 182.76 65.296 181.26C91.984 179.55 113.584 188.28 139.152 192.72C159.056 196.17 179.728 197.01 199.376 191.79C219.696 186.42 238 174.66 250.704 158.85C271.888 132.48 268.4 99.1803 282.192 69.9003C294.672 43.4403 321.04 23.1003 351.152 16.7403C381.264 10.3803 414.384 18.1203 437.776 37.0203" stroke="#351150" stroke-width="0.273904" stroke-miterlimit="10"/>
<path d="M-72.1442 308.73C-70.0962 265.68 -44.6882 225 -5.84017 202.02C14.2238 190.05 37.5838 183.09 61.2958 181.62C68.3358 181.17 75.0558 181.47 81.5838 182.19C99.9518 184.29 116.848 190.05 135.856 193.5C139.6 194.19 143.376 194.76 147.152 195.24C163.696 197.31 180.56 197.16 196.688 192.84C205.552 190.47 214 186.87 221.776 182.16C231.92 176.04 240.816 168.12 248.048 159.03C249.104 157.71 250.096 156.36 251.056 155.01C266.8 132.45 268.72 106.92 278.224 83.7898C279.696 80.2198 281.328 76.6798 283.216 73.2298C290.992 59.0998 303.088 47.0698 317.744 38.3098C328.56 31.8298 340.848 27.1498 353.776 24.6898C362.576 23.0398 371.664 22.4398 380.656 22.7698C402.768 23.6398 424.464 30.0598 440.24 41.6398" stroke="#351150" stroke-width="0.273904" stroke-miterlimit="10"/>
<path d="M-75.536 308.789C-73.616 266.159 -48.592 225.899 -10.384 202.799C9.80798 190.619 33.36 183.419 57.328 181.949C64.432 181.529 71.216 181.799 77.84 182.579C96.4 184.739 113.488 190.649 132.592 194.249C136.368 194.969 140.176 195.599 143.984 196.109C160.688 198.329 177.776 198.269 194 193.859C202.928 191.459 211.44 187.739 219.216 182.849C229.36 176.519 238.128 168.389 245.392 159.179C246.448 157.829 247.472 156.479 248.432 155.099C264.432 132.239 268.112 107.789 278.768 86.2495C280.432 82.9195 282.224 79.6495 284.272 76.4695C292.656 63.4495 305.072 52.5595 319.952 44.6995C330.96 38.8795 343.376 34.7095 356.432 32.5495C365.328 31.0795 374.512 30.5395 383.6 30.7795C405.936 31.4095 427.824 36.4495 442.768 46.1995" stroke="#351150" stroke-width="0.273904" stroke-miterlimit="10"/>
<path d="M-78.9601 308.851C-77.2001 266.641 -52.5921 226.711 -14.9601 203.581C5.32792 191.131 29.1359 183.751 53.3599 182.281C60.5279 181.861 67.4079 182.161 74.0959 182.941C92.8479 185.161 110.128 191.221 129.36 195.001C133.168 195.751 137.008 196.411 140.848 196.951C157.744 199.351 175.024 199.351 191.376 194.881C200.368 192.421 208.912 188.641 216.752 183.571C226.896 177.061 235.568 168.691 242.832 159.331C243.888 157.981 244.912 156.601 245.872 155.221C262.128 132.061 267.504 108.661 279.376 88.7707C281.2 85.7107 283.152 82.7107 285.36 79.7707C294.352 67.8307 307.088 58.1107 322.224 51.1507C333.392 45.9907 345.936 42.3607 359.12 40.4707C368.112 39.1807 377.36 38.7007 386.576 38.8507C409.136 39.2407 431.184 42.9307 445.328 50.8207" stroke="#351150" stroke-width="0.273904" stroke-miterlimit="10"/>
<path d="M-82.384 308.88C-80.784 267.09 -56.592 227.49 -19.536 204.33C0.847976 191.61 24.88 184.02 49.36 182.61C56.592 182.19 63.536 182.49 70.288 183.3C89.232 185.58 106.704 191.79 126.032 195.72C129.872 196.5 133.744 197.22 137.648 197.79C154.704 200.34 172.176 200.43 188.688 195.87C197.744 193.38 206.352 189.48 214.192 184.26C224.336 177.54 232.88 168.96 240.176 159.48C241.232 158.1 242.256 156.72 243.248 155.31C259.76 131.85 266.864 109.53 279.92 91.2603C281.936 88.4403 284.048 85.7103 286.384 83.0403C295.984 72.2103 309.04 63.6303 324.4 57.5703C335.728 53.0703 348.432 49.9803 361.744 48.3603C370.864 47.2503 380.176 46.8303 389.488 46.8903C412.272 47.0403 434.512 49.3503 447.824 55.3803" stroke="#351150" stroke-width="0.273904" stroke-miterlimit="10"/>
<path d="M-85.776 308.94C-84.304 267.57 -60.56 228.3 -24.08 205.11C-3.59999 192.12 20.656 184.35 45.392 182.94C52.656 182.52 59.696 182.82 66.544 183.66C85.68 186 103.344 192.36 122.8 196.47C126.672 197.28 130.576 198.03 134.512 198.66C151.728 201.39 169.424 201.54 186.032 196.92C195.152 194.37 203.792 190.41 211.664 184.98C221.808 178.08 230.224 169.26 237.552 159.66C238.608 158.25 239.664 156.87 240.656 155.43C257.424 131.67 266.256 110.4 280.496 93.7799C282.704 91.2299 284.976 88.7399 287.472 86.3399C297.68 76.6199 311.056 69.1799 326.64 64.0199C338.128 60.2099 350.992 57.6299 364.432 56.2799C373.648 55.3499 383.056 54.9899 392.464 54.9599C415.472 54.8699 437.872 55.7999 450.352 59.9999" stroke="#351150" stroke-width="0.273904" stroke-miterlimit="10"/>
<path d="M-89.2001 309C-87.8881 268.05 -64.5601 229.08 -28.6561 205.89C-8.08006 192.63 16.4319 184.68 41.3919 183.3C48.7199 182.88 55.8239 183.21 62.7359 184.08C82.0639 186.48 99.9199 192.99 119.472 197.28C123.376 198.15 127.312 198.9 131.28 199.56C148.688 202.44 166.576 202.68 183.312 197.97C192.496 195.39 201.2 191.31 209.072 185.73C219.184 178.62 227.504 169.59 234.896 159.84C235.984 158.43 237.008 156.99 238 155.58C255.024 131.52 265.552 111.33 281.008 96.3C283.376 93.99 285.84 91.77 288.464 89.67C299.28 81.03 312.976 74.76 328.784 70.5C340.464 67.35 353.456 65.31 367.024 64.23C376.336 63.48 385.84 63.18 395.312 63.03C418.544 62.67 441.136 62.25 452.784 64.62" stroke="#351150" stroke-width="0.273904" stroke-miterlimit="10"/>
<path d="M-92.624 309.06C-91.44 268.53 -68.592 229.89 -33.232 206.67C-12.56 193.11 12.176 185.01 37.392 183.63C44.784 183.24 51.952 183.54 58.96 184.44C78.48 186.9 96.496 193.56 116.176 198C120.112 198.9 124.08 199.71 128.08 200.4C145.648 203.43 163.76 203.76 180.624 198.96C189.872 196.32 198.608 192.15 206.544 186.42C216.656 179.1 224.848 169.86 232.272 159.99C233.36 158.55 234.384 157.11 235.408 155.67C252.688 131.34 264.912 112.2 281.584 98.7903C284.144 96.7503 286.736 94.7703 289.52 92.9403C300.944 85.4103 314.96 80.2803 331.024 76.9203C342.864 74.4303 355.984 72.9303 369.712 72.1203C379.12 71.5803 388.72 71.3103 398.288 71.0703C421.744 70.4703 444.528 68.7003 455.344 69.2103" stroke="#351150" stroke-width="0.273904" stroke-miterlimit="10"/>
<path d="M-96.0161 309.09C-94.9921 268.95 -72.5601 230.64 -37.7761 207.45C-17.0401 193.62 7.98388 185.31 33.4559 183.96C40.9119 183.57 48.1439 183.9 55.2479 184.8C74.9599 187.32 93.1679 194.13 112.976 198.75C116.944 199.68 120.944 200.52 124.976 201.24C142.704 204.45 161.008 204.84 178 199.98C187.312 197.31 196.112 193.05 204.048 187.11C214.128 179.61 222.224 170.1 229.68 160.11C230.768 158.67 231.824 157.2 232.848 155.76C250.384 131.13 264.304 113.04 282.224 101.28C284.944 99.4798 287.728 97.7698 290.672 96.2098C302.704 89.7598 317.04 85.7998 333.328 83.3398C345.328 81.5098 358.608 80.5498 372.464 80.0098C381.968 79.6498 391.664 79.4398 401.328 79.1098C425.008 78.2698 447.952 75.1198 457.968 73.7998" stroke="#351150" stroke-width="0.273904" stroke-miterlimit="10"/>
<path d="M-99.4401 309.15C-98.5441 269.46 -76.5921 231.42 -42.3201 208.23C-21.4881 194.1 3.75993 185.64 29.4879 184.32C37.0079 183.93 44.3039 184.26 51.4719 185.19C71.3759 187.77 89.7759 194.73 109.68 199.5C113.68 200.46 117.712 201.36 121.776 202.11C139.696 205.47 158.192 205.98 175.312 201C184.688 198.27 193.52 193.92 201.488 187.83C211.568 180.12 219.536 170.4 227.024 160.29C228.112 158.82 229.168 157.35 230.224 155.88C248.016 130.95 263.6 113.91 282.768 103.8C285.68 102.27 288.624 100.8 291.696 99.5099C304.336 94.1699 318.992 91.3499 335.504 89.7899C347.664 88.6199 361.104 88.1999 375.088 87.9299C384.688 87.7499 394.48 87.5999 404.24 87.1799C428.144 86.0999 451.28 81.5699 460.432 78.4199" stroke="#351150" stroke-width="0.273904" stroke-miterlimit="10"/>
<path d="M-102.832 309.21C-102.096 269.91 -80.56 232.2 -46.896 209.01C-25.968 194.61 -0.496032 185.97 25.488 184.65C33.04 184.26 40.464 184.62 47.6959 185.55C67.7919 188.19 86.3839 195.3 106.416 200.25C110.448 201.27 114.512 202.17 118.608 202.98C136.688 206.49 155.408 207.09 172.656 202.02C182.096 199.26 190.992 194.82 198.992 188.55C209.072 180.66 216.944 170.7 224.432 160.47C225.52 158.97 226.576 157.5 227.632 156.03C245.68 130.8 262.96 114.84 283.344 106.35C286.416 105.06 289.552 103.86 292.784 102.84C306.032 98.6096 321.008 96.9296 337.744 96.2996C350.064 95.8196 363.664 95.9096 377.776 95.9096C387.472 95.9096 397.36 95.8196 407.216 95.3096C431.344 93.9896 454.64 88.1096 462.992 83.0996" stroke="#351150" stroke-width="0.273904" stroke-miterlimit="10"/>
<path d="M-106.256 309.27C-105.68 270.39 -84.5919 232.95 -51.4719 209.79C-30.4479 195.09 -4.71986 186.3 21.4881 184.98C29.1041 184.59 36.5921 184.95 43.8881 185.94C64.1761 188.64 82.9601 195.9 103.088 201C107.152 202.05 111.248 203.01 115.376 203.82C133.648 207.51 152.528 208.17 169.904 203.04C179.408 200.25 188.336 195.69 196.368 189.24C206.448 181.14 214.192 170.97 221.712 160.59C222.8 159.09 223.888 157.59 224.944 156.09C243.248 130.56 262.224 115.65 283.824 108.78C287.088 107.76 290.352 106.83 293.744 106.05C307.6 102.9 322.896 102.39 339.888 102.66C352.4 102.84 366.128 103.47 380.368 103.71C390.16 103.89 400.144 103.89 410.096 103.23C434.448 101.67 457.936 94.4103 465.456 87.5703" stroke="#351150" stroke-width="0.273904" stroke-miterlimit="10"/>
<path d="M-109.68 309.33C-109.232 270.87 -88.6241 233.73 -56.048 210.57C-34.96 195.57 -8.97605 186.6 17.52 185.34C25.2 184.98 32.752 185.34 40.144 186.33C60.592 189.09 79.6 196.47 99.856 201.78C103.952 202.86 108.08 203.85 112.24 204.72C130.672 208.56 149.776 209.31 167.28 204.09C176.848 201.24 185.84 196.62 193.872 189.99C203.952 181.71 211.568 171.3 219.12 160.8C220.208 159.27 221.296 157.77 222.384 156.24C240.944 130.41 261.584 116.55 284.432 111.33C287.856 110.55 291.312 109.89 294.832 109.38C309.296 107.34 324.912 107.97 342.128 109.14C354.8 109.98 368.656 111.15 383.024 111.66C392.912 112.02 402.992 112.08 413.04 111.33C437.616 109.53 461.296 100.89 467.984 92.2197" stroke="#351150" stroke-width="0.273904" stroke-miterlimit="10"/>
<path d="M-113.072 309.361C-112.784 271.321 -92.624 234.451 -60.56 211.321C-39.376 196.051 -13.168 186.901 13.584 185.641C21.328 185.281 28.944 185.641 36.432 186.661C57.072 189.481 76.272 197.011 96.624 202.501C100.752 203.611 104.912 204.631 109.104 205.531C127.696 209.521 147.024 210.361 164.656 205.051C174.288 202.171 183.312 197.431 191.408 190.651C201.456 182.161 208.976 171.541 216.56 160.891C217.648 159.361 218.736 157.831 219.856 156.301C238.672 130.171 261.008 117.331 285.072 113.791C288.688 113.251 292.304 112.861 295.984 112.621C311.056 111.661 326.992 113.461 344.432 115.531C357.264 117.031 371.28 118.741 385.776 119.521C395.76 120.061 405.936 120.181 416.08 119.341C440.88 117.301 464.72 107.281 470.576 96.751" stroke="#351150" stroke-width="0.273904" stroke-miterlimit="10"/>
<path d="M-116.496 309.42C-116.336 271.8 -96.656 235.2 -65.136 212.1C-43.888 196.53 -17.392 187.23 9.58404 185.97C17.392 185.61 25.072 185.97 32.624 187.02C53.456 189.9 72.848 197.58 93.328 203.22C97.488 204.36 101.68 205.44 105.904 206.37C124.688 210.54 144.208 211.44 161.936 206.07C171.632 203.13 180.72 198.33 188.816 191.34C198.896 182.7 206.256 171.81 213.872 161.04C214.96 159.48 216.08 157.92 217.168 156.39C236.24 129.96 260.24 118.17 285.552 116.28C289.36 116.01 293.136 115.86 296.944 115.89C312.624 116.04 328.88 118.98 346.544 121.95C359.536 124.11 373.712 126.36 388.336 127.41C398.416 128.16 408.688 128.31 418.928 127.38C443.984 125.1 467.984 113.73 473.008 101.34" stroke="#351150" stroke-width="0.273904" stroke-miterlimit="10"/>
<path d="M-119.888 309.479C-119.888 272.279 -100.688 235.949 -69.6799 212.879C-48.3679 196.979 -21.6159 187.559 5.61605 186.329C13.4561 185.969 21.2321 186.359 28.8801 187.439C49.9041 190.379 69.4881 198.209 90.0641 204.029C94.2561 205.229 98.4801 206.309 102.736 207.299C121.68 211.619 141.392 212.609 159.28 207.149C169.04 204.179 178.192 199.289 186.288 192.119C196.368 183.269 203.6 172.139 211.248 161.279C212.368 159.719 213.456 158.129 214.576 156.599C233.904 129.869 259.6 119.099 286.128 118.859C290.096 118.829 294.032 118.949 298 119.249C314.288 120.479 330.864 124.589 348.752 128.459C361.936 131.279 376.24 134.069 390.992 135.389C401.168 136.319 411.536 136.529 421.84 135.479C447.12 132.959 471.28 120.209 475.504 105.989" stroke="#351150" stroke-width="0.273904" stroke-miterlimit="10"/>
<path d="M-123.312 309.54C-123.472 272.76 -104.72 236.7 -74.256 213.66C-52.88 197.46 -25.84 187.89 1.64802 186.66C9.55202 186.3 17.392 186.69 25.104 187.8C46.32 190.8 66.064 198.78 86.8 204.75C91.024 205.98 95.28 207.12 99.568 208.11C118.672 212.58 138.608 213.66 156.624 208.14C166.448 205.11 175.664 200.13 183.792 192.81C193.872 183.78 201.008 172.41 208.656 161.4C209.776 159.81 210.864 158.22 212.016 156.66C231.6 129.63 258.992 119.88 286.736 121.32C290.896 121.53 294.992 121.92 299.12 122.49C316.016 124.83 332.912 130.08 351.056 134.85C364.4 138.36 378.864 141.66 393.744 143.25C404.016 144.36 414.48 144.63 424.88 143.49C450.384 140.73 474.736 126.6 478.128 110.55" stroke="#351150" stroke-width="0.273904" stroke-miterlimit="10"/>
<path d="M-126.736 309.57C-127.024 273.21 -108.784 237.42 -78.832 214.41C-57.36 197.91 -30.096 188.16 -2.35202 186.99C5.61598 186.66 13.552 187.05 21.328 188.16C42.736 191.22 62.672 199.35 83.504 205.5C87.76 206.76 92.048 207.93 96.368 208.98C115.664 213.63 135.792 214.77 153.904 209.16C163.792 206.1 173.04 201.03 181.2 193.5C191.248 184.26 198.288 172.68 205.968 161.55C207.088 159.93 208.208 158.34 209.36 156.75C229.168 129.42 258.288 120.72 287.248 123.81C291.568 124.26 295.856 124.92 300.112 125.76C317.584 129.21 334.832 135.6 353.2 141.27C366.704 145.44 381.296 149.28 396.336 151.14C406.704 152.43 417.264 152.76 427.76 151.53C453.488 148.53 478.032 133.02 480.56 115.14" stroke="#351150" stroke-width="0.273904" stroke-miterlimit="10"/>
<path d="M-130.128 309.631C-130.576 273.691 -112.784 238.171 -83.3761 215.191C-61.8401 198.391 -34.3201 188.491 -6.32009 187.321C1.71191 186.991 9.71192 187.381 17.5839 188.521C39.1839 191.641 59.3119 199.921 80.2399 206.251C84.5279 207.541 88.8479 208.771 93.1999 209.821C112.656 214.621 132.976 215.851 151.248 210.151C161.2 207.031 170.512 201.871 178.672 194.191C188.72 184.771 195.632 172.951 203.344 161.701C204.464 160.081 205.584 158.461 206.736 156.871C226.8 129.241 257.616 121.561 287.792 126.331C292.304 127.051 296.752 127.951 301.136 129.061C319.216 133.591 336.784 141.151 355.376 147.721C369.04 152.551 383.792 156.931 398.96 159.061C409.424 160.531 420.08 160.921 430.672 159.601C456.624 156.361 481.328 139.501 483.056 119.761" stroke="#351150" stroke-width="0.273904" stroke-miterlimit="10"/>
<path d="M-133.552 309.691C-134.128 274.171 -116.848 238.921 -87.9521 215.971C-66.3841 198.841 -38.5441 188.821 -10.3201 187.651C-2.25609 187.321 5.83991 187.741 13.7759 188.881C35.5679 192.061 55.8879 200.491 76.9439 206.971C81.2639 208.291 85.6159 209.551 89.9999 210.661C109.616 215.641 130.16 216.931 148.56 211.171C158.576 208.021 167.92 202.771 176.112 194.911C186.16 185.281 192.944 173.251 200.688 161.851C201.808 160.201 202.96 158.581 204.112 156.961C224.432 129.031 256.976 122.341 288.336 128.821C293.04 129.781 297.616 130.981 302.192 132.331C320.88 137.971 338.768 146.671 357.584 154.141C371.408 159.631 386.32 164.551 401.616 166.951C412.176 168.601 422.928 169.051 433.616 167.641C459.792 164.161 484.688 145.921 485.584 124.351" stroke="#351150" stroke-width="0.273904" stroke-miterlimit="10"/>
<path d="M-136.944 309.749C-137.68 274.649 -120.912 239.609 -92.496 216.749C-70.896 199.259 -42.768 189.149 -14.288 188.009C-6.16002 187.679 1.99998 188.099 10.032 189.299C32.016 192.539 52.528 201.119 73.68 207.779C78.032 209.159 82.416 210.419 86.832 211.589C106.64 216.719 127.376 218.129 145.872 212.249C155.952 209.069 165.36 203.699 173.584 195.659C183.632 185.849 190.288 173.579 198.064 162.059C199.184 160.409 200.336 158.759 201.52 157.139C222.096 128.909 256.336 123.269 288.912 131.369C293.776 132.569 298.544 134.039 303.248 135.659C322.544 142.379 340.752 152.249 359.824 160.619C373.84 166.769 388.88 172.229 404.272 174.899C414.928 176.729 425.776 177.239 436.56 175.709C462.96 171.959 488.016 152.369 488.08 128.969" stroke="#351150" stroke-width="0.273904" stroke-miterlimit="10"/>
<path d="M-140.368 309.78C-141.232 275.1 -124.944 240.36 -97.0721 217.53C-69.2002 194.7 -30.2882 184.2 6.25585 189.66C33.0078 193.65 57.5838 205.53 83.6638 212.43C114.512 220.59 147.664 219.69 171.056 196.35C182.544 184.89 189.456 170.19 198.928 157.23C219.76 128.73 255.696 124.11 289.488 133.86C315.248 141.3 338.064 155.52 362.032 167.07C386 178.62 412.88 187.77 439.504 183.78C466.128 179.79 491.376 158.85 490.608 133.56" stroke="#351150" stroke-width="0.273904" stroke-miterlimit="10"/>
<path d="M-133.552 309.751C-133.264 275.851 -116.208 242.641 -88.336 220.381C-85.136 217.831 -81.808 215.431 -78.352 213.181C-51.728 195.811 -18.32 187.531 13.168 191.131C27.856 192.781 41.84 196.831 55.792 201.061C66.544 204.331 77.296 207.691 88.304 210.151C118.192 216.901 150.288 214.951 173.296 191.851C184.624 180.451 191.664 165.991 201.232 153.301C222.032 125.491 257.456 120.751 290.768 130.231C297.104 132.031 303.248 134.251 309.296 136.741C327.504 144.301 344.592 154.411 362.352 163.021C366.416 165.001 370.544 166.891 374.768 168.661C395.088 177.181 417.04 182.761 438.8 179.551C465.072 175.681 490.032 155.401 490 130.741" stroke="#351150" stroke-width="0.273904" stroke-miterlimit="10"/>
<path d="M-126.768 309.69C-125.328 276.6 -107.504 244.92 -79.6321 223.2C-76.4321 220.71 -73.1041 218.37 -69.6801 216.15C-43.2161 199.05 -10.5761 190.23 20.0479 192.54C34.3199 193.62 47.9199 196.92 61.4239 200.43C71.8559 203.13 82.2559 205.92 92.9119 207.84C121.808 213.15 152.88 210.21 175.504 187.32C186.672 175.98 193.872 161.82 203.504 149.34C224.336 122.31 259.184 117.36 292.048 126.57C298.288 128.31 304.368 130.5 310.352 132.96C328.336 140.4 345.136 150.45 362.64 159C366.64 160.95 370.736 162.84 374.896 164.58C394.928 173.04 416.592 178.44 438.096 175.35C464.048 171.6 488.688 151.98 489.392 127.95" stroke="#351150" stroke-width="0.273904" stroke-miterlimit="10"/>
<path d="M-119.952 309.631C-117.36 277.351 -98.768 247.171 -70.896 226.051C-67.696 223.621 -64.4 221.341 -60.976 219.151C-34.64 202.351 -2.80003 192.931 26.96 193.981C40.848 194.461 54 197.041 67.088 199.831C77.2 201.961 87.248 204.15 97.552 205.56C125.52 209.37 155.504 205.501 177.776 182.791C188.816 171.511 196.144 157.621 205.808 145.381C226.608 119.071 260.944 114.001 293.328 122.911C299.504 124.591 305.52 126.721 311.408 129.151C329.168 136.471 345.712 146.461 362.96 154.951C366.896 156.901 370.928 158.761 375.024 160.501C394.768 168.871 416.176 174.12 437.392 171.121C462.992 167.491 487.344 148.531 488.784 125.131" stroke="#351150" stroke-width="0.273904" stroke-miterlimit="10"/>
<path d="M-113.136 309.57C-109.36 278.1 -90.0321 249.45 -62.1281 228.87C-58.9281 226.5 -55.6321 224.25 -52.2401 222.12C-26.0641 205.62 5.00789 195.6 33.9039 195.39C47.3759 195.27 60.1439 197.13 72.7519 199.2C82.5119 200.76 92.2399 202.35 102.224 203.22C129.2 205.59 158.16 200.7 180.048 178.23C190.928 167.01 198.384 153.39 208.144 141.39C228.912 115.83 262.768 110.58 294.672 119.22C300.784 120.87 306.704 122.94 312.528 125.31C330.064 132.51 346.32 142.44 363.312 150.87C367.184 152.79 371.152 154.65 375.216 156.36C394.672 164.64 415.792 169.77 436.752 166.86C462.032 163.35 486.096 145.05 488.24 122.28" stroke="#351150" stroke-width="0.273904" stroke-miterlimit="10"/>
<path d="M-106.352 309.54C-101.424 278.85 -81.328 251.73 -53.424 231.72C-50.224 229.44 -46.928 227.22 -43.568 225.12C-17.552 208.89 12.752 198.3 40.752 196.83C53.808 196.14 66.1599 197.25 78.3519 198.57C87.7919 199.56 97.168 200.58 106.8 200.91C132.816 201.84 160.752 195.96 182.224 173.7C192.944 162.54 200.56 149.19 210.384 137.43C231.152 112.59 264.464 107.22 295.888 115.53C301.904 117.12 307.76 119.13 313.52 121.47C330.832 128.52 346.832 138.42 363.536 146.76C367.376 148.68 371.28 150.51 375.248 152.22C394.416 160.41 415.28 165.39 435.92 162.6C460.848 159.21 484.624 141.57 487.504 119.43" stroke="#351150" stroke-width="0.273904" stroke-miterlimit="10"/>
<path d="M-99.536 309.48C-93.456 279.6 -72.592 254.01 -44.688 234.57C-41.488 232.35 -38.192 230.19 -34.864 228.12C-8.97602 212.19 20.528 201.03 47.664 198.3C60.336 197.01 72.272 197.43 84.016 198C93.104 198.45 102.16 198.84 111.44 198.66C136.496 198.12 163.376 191.25 184.464 169.2C195.024 158.1 202.768 145.02 212.688 133.5C233.424 109.41 266.224 103.86 297.168 111.9C303.12 113.43 308.912 115.41 314.576 117.69C331.664 124.62 347.376 134.46 363.824 142.74C367.6 144.63 371.44 146.46 375.344 148.14C394.224 156.24 414.8 161.1 435.184 158.4C459.76 155.13 483.248 138.15 486.864 116.61" stroke="#351150" stroke-width="0.273904" stroke-miterlimit="10"/>
<path d="M-92.72 309.421C-85.456 280.351 -63.856 256.261 -35.952 237.391C-32.752 235.231 -29.488 233.131 -26.128 231.121C-0.39997 215.491 28.304 203.731 54.576 199.741C66.832 197.851 78.384 197.551 89.68 197.401C98.448 197.281 107.152 197.101 116.08 196.351C140.176 194.371 166 186.511 186.704 164.671C197.104 153.631 204.976 140.821 214.96 129.541C235.664 106.171 267.952 100.471 298.448 108.241C304.304 109.741 310.032 111.631 315.632 113.911C332.496 120.721 347.92 130.501 364.144 138.721C367.856 140.611 371.632 142.411 375.504 144.061C394.096 152.071 414.416 156.781 434.512 154.171C458.768 151.021 481.936 134.701 486.288 113.791" stroke="#351150" stroke-width="0.273904" stroke-miterlimit="10"/>
<path d="M-85.936 309.36C-77.52 281.07 -55.152 258.54 -27.248 240.24C-24.048 238.14 -20.784 236.1 -17.456 234.12C8.14398 218.76 36.08 206.43 61.488 201.18C73.328 198.72 84.464 197.67 95.344 196.8C103.792 196.14 112.144 195.33 120.72 194.07C143.824 190.65 168.624 181.8 188.976 160.17C199.248 149.22 207.248 136.65 217.296 125.64C237.968 102.99 269.776 97.17 299.76 104.64C305.552 106.08 311.184 107.94 316.72 110.16C333.36 116.85 348.528 126.57 364.464 134.73C368.112 136.59 371.856 138.39 375.632 140.04C393.936 147.99 413.968 152.52 433.808 150.03C457.712 147 480.592 131.34 485.712 111.06" stroke="#351150" stroke-width="0.273904" stroke-miterlimit="10"/>
<path d="M-79.12 309.33C-69.552 281.85 -46.416 260.82 -18.512 243.09C-15.312 241.05 -12.048 239.07 -8.75199 237.12C16.688 222.06 43.856 209.13 68.368 202.62C79.824 199.56 90.544 197.79 100.976 196.2C109.072 194.97 117.104 193.59 125.328 191.79C147.472 186.93 171.216 177.06 191.184 155.64C201.296 144.75 209.424 132.45 219.568 121.68C240.176 99.7496 271.504 93.7796 301.04 100.98C306.736 102.36 312.336 104.16 317.776 106.35C334.192 112.92 349.072 122.58 364.752 130.65C368.336 132.51 372.016 134.28 375.76 135.9C393.776 143.76 413.552 148.17 433.104 145.77C456.656 142.86 479.248 127.86 485.104 108.21" stroke="#351150" stroke-width="0.273904" stroke-miterlimit="10"/>
<path d="M-72.3041 309.269C-61.5841 282.599 -37.6801 263.099 -9.74408 245.939C-6.54408 243.959 -3.28008 242.039 -0.0160758 240.119C25.2639 225.329 51.6319 211.829 75.2799 204.059C86.3199 200.399 96.6559 197.909 106.64 195.599C114.416 193.799 122.096 191.819 129.968 189.479C151.12 183.209 173.872 172.319 193.424 151.109C203.376 140.279 211.632 128.249 221.872 117.719C242.448 96.539 273.264 90.419 302.32 97.319C307.952 98.639 313.456 100.409 318.832 102.539C335.024 108.989 349.648 118.589 365.072 126.599C368.592 128.429 372.208 130.199 375.888 131.819C393.616 139.589 413.104 143.849 432.368 141.539C455.6 138.749 477.872 124.409 484.464 105.389" stroke="#351150" stroke-width="0.273904" stroke-miterlimit="10"/>
<path d="M-65.5199 309.211C-53.6159 283.351 -28.9759 265.381 -1.03989 248.761C2.16011 246.871 5.39211 244.981 8.65611 243.091C33.8081 228.601 59.4081 214.531 82.1921 205.501C92.8481 201.241 102.736 198.031 112.304 195.001C119.76 192.631 127.056 190.081 134.64 187.201C154.832 179.491 176.528 167.581 195.696 146.611C205.488 135.841 213.872 124.081 224.176 113.791C244.688 93.3314 275.024 87.0614 303.632 93.6914C309.2 94.9814 314.608 96.6914 319.92 98.7614C335.888 105.091 350.224 114.631 365.392 122.581C368.88 124.411 372.4 126.151 376.048 127.741C393.488 135.421 412.72 139.531 431.696 137.341C454.576 134.671 476.592 120.991 483.888 102.571" stroke="#351150" stroke-width="0.273904" stroke-miterlimit="10"/>
<path d="M-58.7041 309.149C-45.6481 284.069 -20.2401 267.629 7.6959 251.609C10.8959 249.779 14.1279 247.949 17.3599 246.089C42.3839 231.899 67.1839 217.229 89.1039 206.939C99.3439 202.109 108.848 198.149 117.968 194.399C125.072 191.459 132.048 188.339 139.28 184.919C158.48 175.799 179.152 162.869 197.936 142.079C207.6 131.369 216.08 119.879 226.48 109.829C246.96 90.0589 276.816 83.6689 304.912 90.0289C310.384 91.2589 315.76 92.9089 320.976 94.9789C336.72 101.189 350.8 110.669 365.68 118.559C369.104 120.359 372.592 122.099 376.144 123.659C393.296 131.249 412.24 135.239 430.96 133.139C453.52 130.619 475.216 117.569 483.248 99.7789" stroke="#351150" stroke-width="0.273904" stroke-miterlimit="10"/>
<path d="M-51.92 309.12C-37.712 284.85 -11.536 269.94 16.3999 254.46C19.5999 252.69 22.832 250.92 26.064 249.09C50.9279 235.17 74.9599 219.93 95.9839 208.38C105.808 202.95 114.928 198.27 123.6 193.8C130.384 190.29 137.008 186.6 143.888 182.61C162.128 172.08 181.744 158.13 200.144 137.55C209.648 126.9 218.256 115.65 228.752 105.87C249.168 86.8203 278.544 80.3103 306.16 86.3703C311.568 87.5403 316.848 89.1603 322 91.1703C337.52 97.2303 351.312 106.68 365.968 114.48C369.328 116.28 372.752 117.99 376.272 119.55C393.136 127.08 411.824 130.89 430.256 128.88C452.464 126.48 473.872 114.09 482.64 96.9303" stroke="#351150" stroke-width="0.273904" stroke-miterlimit="10"/>
<path d="M-45.1041 309.06C-29.7121 285.6 -2.80013 272.19 25.1359 257.28C28.3359 255.57 31.5679 253.83 34.7679 252.09C59.4719 238.47 82.7359 222.63 102.896 209.82C112.336 203.79 121.008 198.39 129.264 193.2C135.696 189.12 142 184.86 148.528 180.33C165.776 168.36 184.368 153.39 202.416 133.02C211.76 122.43 220.496 111.45 231.088 101.91C251.44 83.5799 280.336 76.9199 307.504 82.6799C312.816 83.7899 318.032 85.3499 323.12 87.3299C338.416 93.2699 351.92 102.66 366.32 110.4C369.616 112.17 372.976 113.88 376.432 115.41C393.008 122.85 411.408 126.54 429.584 124.62C451.44 122.34 472.56 110.64 482.064 94.0799" stroke="#351150" stroke-width="0.273904" stroke-miterlimit="10"/>
<path d="M-38.288 309C-21.744 286.35 5.93596 274.47 33.872 260.13C37.072 258.48 40.272 256.8 43.472 255.09C68.048 241.77 90.512 225.36 109.808 211.26C118.832 204.66 127.12 198.51 134.928 192.57C141.04 187.92 146.992 183.09 153.168 178.02C169.456 164.64 186.992 148.65 204.656 128.49C213.84 117.96 222.704 107.25 233.36 97.95C253.648 80.31 282.064 73.56 308.752 79.02C314 80.1 319.12 81.6 324.144 83.52C339.216 89.34 352.464 98.67 366.576 106.35C369.808 108.12 373.136 109.8 376.496 111.33C392.784 118.68 410.928 122.22 428.784 120.42C450.32 118.26 471.12 107.22 481.36 91.29" stroke="#351150" stroke-width="0.273904" stroke-miterlimit="10"/>
<path d="M-31.504 308.941C-13.808 287.071 14.64 276.721 42.608 262.951C45.808 261.361 49.008 259.741 52.176 258.061C76.592 245.011 98.288 228.031 116.72 212.701C125.36 205.501 133.2 198.631 140.592 191.971C146.384 186.781 151.984 181.351 157.808 175.711C173.136 160.921 189.648 143.881 206.896 123.961C215.952 113.491 224.88 103.021 235.664 93.991C255.888 77.071 283.824 70.171 310.064 75.361C315.216 76.381 320.304 77.821 325.232 79.741C340.08 85.441 353.04 94.711 366.928 102.331C370.128 104.071 373.36 105.751 376.688 107.251C392.688 114.511 410.544 117.901 428.144 116.191C449.328 114.151 469.84 103.771 480.816 88.441" stroke="#351150" stroke-width="0.273904" stroke-miterlimit="10"/>
<path d="M-24.6881 308.91C-5.84011 287.85 23.3759 279.03 51.3439 265.83C54.5439 264.33 57.7439 262.74 60.8799 261.09C85.1679 248.34 106.064 230.76 123.6 214.17C131.824 206.37 139.28 198.78 146.224 191.4C151.664 185.64 156.944 179.61 162.416 173.46C176.784 157.26 192.24 139.2 209.104 119.46C218 109.05 227.056 98.8501 237.936 90.0901C258.096 73.8601 285.584 66.8401 311.312 71.7601C316.4 72.7201 321.392 74.1301 326.256 75.9901C340.88 81.5701 353.584 90.7801 367.184 98.3101C370.32 100.05 373.488 101.7 376.752 103.2C392.464 110.37 410.064 113.64 427.376 112.02C448.208 110.1 468.432 100.38 480.144 85.6801" stroke="#351150" stroke-width="0.273904" stroke-miterlimit="10"/>
<path d="M-17.8719 308.85C2.16005 288.6 32.1121 281.28 60.0801 268.65C63.2801 267.21 66.4481 265.68 69.5841 264.06C93.7121 251.58 113.84 233.43 130.512 215.58C138.32 207.21 145.36 198.84 151.888 190.77C156.976 184.41 161.936 177.84 167.088 171.15C180.528 153.54 194.896 134.46 211.376 114.93C220.112 104.58 229.296 94.62 240.272 86.13C260.336 70.59 287.376 63.48 312.624 68.1C317.648 69 322.544 70.38 327.344 72.18C341.744 77.64 354.16 86.79 367.504 94.26C370.576 95.97 373.68 97.62 376.912 99.09C392.336 106.17 409.648 109.29 426.704 107.79C447.216 105.99 467.152 96.93 479.568 82.86" stroke="#351150" stroke-width="0.273904" stroke-miterlimit="10"/>
<path d="M-11.088 308.79C10.096 289.32 40.816 283.56 68.784 271.5C71.984 270.12 75.152 268.65 78.256 267.06C102.256 254.88 121.584 236.16 137.392 217.02C144.816 208.05 151.408 198.96 157.52 190.17C162.288 183.24 166.928 176.1 171.696 168.84C184.176 149.82 197.488 129.69 213.616 110.4C222.192 100.11 231.472 90.3897 242.544 82.1697C262.544 67.3197 289.104 60.0897 313.904 64.4397C318.832 65.3097 323.696 66.5997 328.4 68.3697C342.576 73.7097 354.704 82.7997 367.824 90.2097C370.832 91.9197 373.904 93.5397 377.04 94.9797C392.176 102 409.232 104.94 426 103.56C446.16 101.88 465.808 93.4797 478.96 80.0397" stroke="#351150" stroke-width="0.273904" stroke-miterlimit="10"/>
<path d="M-4.27203 308.73C18.064 290.07 49.552 285.84 77.52 274.32C80.72 273 83.888 271.59 86.992 270.03C110.832 258.15 129.392 238.83 144.336 218.46C151.344 208.89 157.552 199.08 163.216 189.57C167.632 182.1 171.952 174.36 176.368 166.56C187.952 146.16 200.144 124.98 215.888 105.87C224.304 95.6405 233.712 86.1605 244.88 78.2105C264.784 64.0205 290.896 56.7305 315.216 60.7805C320.08 61.5905 324.848 62.8505 329.488 64.5605C343.44 69.7505 355.312 78.8105 368.144 86.1605C371.088 87.8405 374.096 89.4605 377.2 90.9005C392.048 97.8305 408.816 100.65 425.296 99.3305C445.136 97.7705 464.464 90.0305 478.352 77.2205" stroke="#351150" stroke-width="0.273904" stroke-miterlimit="10"/>
<path d="M2.54382 308.699C28.7518 288.809 65.8078 287.699 95.6958 273.059C130.512 256.019 152.528 221.069 168.848 188.999C189.456 148.559 206.96 101.669 247.152 74.3092C270.96 58.0792 303.152 50.6992 330.544 60.8092C347.44 67.0492 361.072 79.1992 377.296 86.8492C409.328 101.909 450.928 96.7792 477.712 74.4592" stroke="#351150" stroke-width="0.273904" stroke-miterlimit="10"/>
</g>
</svg>
