<svg width="400" height="250" viewBox="0 0 400 250" fill="none" xmlns="http://www.w3.org/2000/svg">
<mask id="mask0_291_1327" style="mask-type:luminance" maskUnits="userSpaceOnUse" x="0" y="0" width="400" height="250">
<path d="M380 0H20C8.95431 0 0 8.9543 0 20V230C0 241.046 8.95431 250 20 250H380C391.046 250 400 241.046 400 230V20C400 8.9543 391.046 0 380 0Z" fill="white"/>
</mask>
<g mask="url(#mask0_291_1327)">
<path d="M109.967 281.001C111.467 251.595 128.933 223.876 155.6 208.345C169.1 200.47 184.733 195.845 200.633 194.845C218.7 193.689 233.3 199.595 250.6 202.595C264.067 204.939 278.067 205.501 291.333 201.97C305.067 198.345 317.467 190.376 326.033 179.689C340.367 161.845 338 139.314 347.333 119.533C355.767 101.626 373.6 87.8764 393.967 83.5639C414.333 79.2514 436.733 84.5014 452.567 97.2826" stroke="#F2F2F2" stroke-width="0.273904" stroke-miterlimit="10"/>
<path d="M107.667 281.063C109.067 251.938 126.233 224.438 152.5 208.876C166.067 200.782 181.867 196.063 197.9 195.063C202.667 194.751 207.2 194.969 211.633 195.469C224.067 196.876 235.5 200.782 248.333 203.126C250.867 203.594 253.433 203.969 255.967 204.313C267.167 205.719 278.567 205.594 289.467 202.688C295.467 201.094 301.167 198.657 306.433 195.469C313.3 191.313 319.333 185.969 324.2 179.813C324.9 178.907 325.6 178.001 326.233 177.094C336.9 161.844 338.167 144.563 344.6 128.907C345.6 126.501 346.7 124.094 347.967 121.782C353.233 112.219 361.4 104.094 371.333 98.1569C378.667 93.7819 386.967 90.5944 395.7 88.9382C401.667 87.8132 407.8 87.4069 413.867 87.6569C428.8 88.2507 443.5 92.5944 454.167 100.407" stroke="#CE454B" stroke-width="0.273904" stroke-miterlimit="10"/>
<path d="M105.367 281.094C106.667 252.251 123.6 225.032 149.433 209.407C163.1 201.157 179.033 196.282 195.233 195.313C200.033 195.032 204.633 195.219 209.1 195.719C221.667 197.188 233.2 201.188 246.133 203.626C248.7 204.094 251.267 204.532 253.833 204.876C265.133 206.376 276.7 206.344 287.667 203.376C293.7 201.751 299.467 199.251 304.733 195.938C311.6 191.657 317.533 186.157 322.433 179.907C323.133 179.001 323.833 178.063 324.467 177.157C335.3 161.688 337.767 145.157 345 130.594C346.1 128.344 347.333 126.126 348.7 124.001C354.367 115.188 362.767 107.813 372.833 102.501C380.267 98.5632 388.667 95.7507 397.5 94.2819C403.533 93.2819 409.733 92.9069 415.867 93.0944C430.967 93.5007 445.767 96.9382 455.9 103.532" stroke="#CE454B" stroke-width="0.273904" stroke-miterlimit="10"/>
<path d="M103.067 281.126C104.267 252.564 120.9 225.564 146.367 209.939C160.1 201.501 176.2 196.501 192.567 195.533C197.4 195.251 202.067 195.439 206.6 195.97C219.3 197.47 230.967 201.564 243.967 204.126C246.533 204.626 249.133 205.095 251.733 205.439C263.167 207.064 274.833 207.064 285.9 204.033C291.967 202.376 297.767 199.814 303.067 196.376C309.933 191.97 315.8 186.314 320.7 180.001C321.433 179.064 322.1 178.158 322.767 177.22C333.767 161.564 337.4 145.72 345.433 132.283C346.667 130.22 348 128.189 349.467 126.189C355.567 118.126 364.167 111.533 374.4 106.814C381.967 103.345 390.433 100.876 399.367 99.5951C405.467 98.7201 411.7 98.4076 417.933 98.5013C433.2 98.7513 448.1 101.251 457.667 106.595" stroke="#CE454B" stroke-width="0.273904" stroke-miterlimit="10"/>
<path d="M100.767 281.158C101.867 252.876 118.2 226.095 143.267 210.439C157.067 201.845 173.3 196.72 189.867 195.751C194.767 195.47 199.433 195.658 204.033 196.22C216.833 197.751 228.667 201.97 241.733 204.626C244.333 205.158 246.933 205.626 249.567 206.033C261.1 207.751 272.933 207.814 284.067 204.751C290.2 203.064 296 200.439 301.3 196.908C308.167 192.376 313.933 186.564 318.9 180.158C319.633 179.22 320.3 178.283 320.967 177.345C332.133 161.47 336.933 146.376 345.767 134.033C347.133 132.126 348.567 130.283 350.133 128.47C356.633 121.158 365.467 115.345 375.833 111.251C383.5 108.22 392.1 106.126 401.1 105.033C407.267 104.283 413.567 104.001 419.867 104.033C435.267 104.126 450.3 105.689 459.333 109.783" stroke="#CE454B" stroke-width="0.273904" stroke-miterlimit="10"/>
<path d="M98.4333 281.189C99.4333 253.189 115.467 226.626 140.167 210.97C154 202.189 170.433 196.939 187.167 195.97C192.1 195.689 196.833 195.907 201.467 196.47C214.4 198.064 226.367 202.345 239.5 205.126C242.133 205.689 244.767 206.189 247.4 206.595C259.067 208.439 271.033 208.532 282.267 205.407C288.433 203.689 294.3 201.001 299.6 197.345C306.467 192.689 312.167 186.72 317.133 180.22C317.867 179.282 318.567 178.314 319.233 177.376C330.567 161.314 336.533 146.939 346.2 135.657C347.7 133.939 349.233 132.251 350.9 130.626C357.8 124.032 366.867 119.032 377.4 115.532C385.167 112.939 393.867 111.22 402.967 110.282C409.2 109.657 415.567 109.407 421.933 109.376C437.5 109.314 452.667 109.939 461.1 112.782" stroke="#CE454B" stroke-width="0.273904" stroke-miterlimit="10"/>
<path d="M96.1334 281.22C97.0334 253.501 112.8 227.157 137.1 211.501C151 202.532 167.6 197.157 184.5 196.22C189.467 195.938 194.267 196.157 198.933 196.751C212 198.376 224.067 202.782 237.3 205.657C239.933 206.251 242.6 206.751 245.267 207.188C257.033 209.126 269.133 209.313 280.467 206.126C286.667 204.376 292.567 201.626 297.9 197.845C304.733 193.032 310.367 186.907 315.367 180.345C316.1 179.376 316.8 178.438 317.467 177.47C328.967 161.22 336.1 147.532 346.567 137.376C348.167 135.813 349.833 134.313 351.6 132.876C358.9 127.032 368.167 122.782 378.867 119.907C386.767 117.782 395.533 116.407 404.733 115.657C411.033 115.157 417.467 114.938 423.867 114.845C439.567 114.595 454.867 114.313 462.733 115.938" stroke="#CE454B" stroke-width="0.273904" stroke-miterlimit="10"/>
<path d="M93.8334 281.25C94.6334 253.813 110.1 227.688 134 212C147.967 202.844 164.733 197.344 181.767 196.407C186.767 196.125 191.6 196.344 196.367 196.938C209.567 198.594 221.767 203.094 235.067 206.125C237.733 206.719 240.4 207.282 243.1 207.75C255 209.813 267.233 210.032 278.633 206.782C284.867 205 290.8 202.188 296.167 198.282C303 193.344 308.567 187.063 313.567 180.407C314.3 179.438 315 178.469 315.7 177.5C327.4 161.032 335.667 148.094 346.933 139.032C348.667 137.657 350.433 136.313 352.3 135.063C360.033 129.969 369.5 126.5 380.367 124.219C388.367 122.532 397.267 121.532 406.533 120.969C412.9 120.594 419.4 120.438 425.867 120.25C441.733 119.844 457.133 118.625 464.467 119" stroke="#CE454B" stroke-width="0.273904" stroke-miterlimit="10"/>
<path d="M91.5334 281.314C92.2334 254.158 107.4 228.252 130.933 212.564C144.967 203.221 161.867 197.596 179.1 196.689C184.133 196.408 189.033 196.658 193.833 197.252C207.167 198.971 219.5 203.564 232.867 206.689C235.567 207.314 238.267 207.908 240.967 208.377C252.967 210.533 265.333 210.814 276.833 207.502C283.133 205.689 289.067 202.814 294.467 198.814C301.3 193.721 306.767 187.314 311.8 180.564C312.533 179.596 313.233 178.596 313.933 177.627C325.8 160.971 335.2 148.721 347.333 140.783C349.167 139.564 351.067 138.408 353.033 137.346C361.167 133.002 370.867 130.314 381.867 128.658C390 127.439 398.967 126.783 408.333 126.408C414.767 126.158 421.333 126.033 427.867 125.783C443.9 125.221 459.4 123.096 466.167 122.189" stroke="#CE454B" stroke-width="0.273904" stroke-miterlimit="10"/>
<path d="M89.2 281.345C89.8 254.501 104.667 228.751 127.833 213.064C141.933 203.501 159 197.782 176.4 196.876C181.467 196.626 186.433 196.845 191.267 197.47C204.733 199.22 217.167 203.907 230.633 207.157C233.333 207.813 236.067 208.407 238.8 208.907C250.933 211.189 263.433 211.501 275 208.157C281.333 206.313 287.333 203.376 292.7 199.251C299.533 194.032 304.933 187.47 309.967 180.626C310.7 179.626 311.433 178.626 312.133 177.657C324.167 160.782 334.733 149.282 347.667 142.438C349.633 141.407 351.633 140.407 353.7 139.532C362.233 135.907 372.167 134.001 383.333 132.97C391.567 132.188 400.667 131.907 410.1 131.72C416.6 131.595 423.233 131.501 429.833 131.22C446 130.501 461.633 127.438 467.833 125.282" stroke="#CE454B" stroke-width="0.273904" stroke-miterlimit="10"/>
<path d="M86.8999 281.377C87.3999 254.814 101.967 229.283 124.733 213.596C138.9 203.846 156.133 198.002 173.7 197.127C178.833 196.877 183.833 197.096 188.733 197.752C202.333 199.533 214.9 204.346 228.433 207.689C231.167 208.377 233.9 209.002 236.667 209.533C248.9 211.908 261.567 212.314 273.2 208.877C279.567 207.002 285.6 204.002 291 199.752C297.833 194.408 303.133 187.689 308.2 180.752C308.933 179.752 309.667 178.752 310.367 177.752C322.567 160.689 334.267 149.877 348.033 144.127C350.133 143.252 352.233 142.439 354.4 141.752C363.367 138.877 373.5 137.752 384.833 137.314C393.167 136.971 402.367 137.064 411.9 137.033C418.467 137.033 425.133 136.971 431.8 136.627C448.133 135.752 463.9 131.752 469.533 128.377" stroke="#CE454B" stroke-width="0.273904" stroke-miterlimit="10"/>
<path d="M84.6001 281.407C85.0001 255.126 99.2334 229.782 121.667 214.126C135.867 204.188 153.267 198.22 171.033 197.345C176.2 197.095 181.233 197.313 186.2 198.001C199.9 199.813 212.633 204.72 226.233 208.188C228.967 208.907 231.733 209.532 234.533 210.095C246.867 212.595 259.667 213.032 271.433 209.563C277.867 207.657 283.9 204.595 289.333 200.251C296.133 194.782 301.4 187.907 306.467 180.876C307.2 179.845 307.933 178.845 308.667 177.845C321.033 160.563 333.867 150.47 348.5 145.845C350.7 145.157 352.933 144.532 355.2 144.001C364.567 141.876 374.933 141.532 386.4 141.688C394.867 141.813 404.133 142.251 413.767 142.407C420.4 142.532 427.133 142.532 433.867 142.095C450.333 141.032 466.233 136.126 471.3 131.501" stroke="#CE454B" stroke-width="0.273904" stroke-miterlimit="10"/>
<path d="M82.3 281.439C82.6 255.439 96.5333 230.314 118.6 214.627C132.867 204.502 150.433 198.408 168.367 197.564C173.567 197.314 178.667 197.564 183.667 198.221C197.5 200.096 210.367 205.096 224.067 208.658C226.833 209.377 229.633 210.064 232.433 210.627C244.9 213.221 257.833 213.721 269.667 210.189C276.133 208.252 282.2 205.127 287.667 200.658C294.467 195.064 299.633 188.002 304.733 180.908C305.467 179.877 306.2 178.846 306.933 177.846C319.467 160.377 333.467 151.002 348.9 147.471C351.233 146.939 353.567 146.502 355.933 146.158C365.7 144.783 376.267 145.189 387.933 146.002C396.5 146.564 405.9 147.377 415.6 147.721C422.3 147.971 429.1 148.002 435.9 147.502C452.533 146.283 468.533 140.439 473.067 134.564" stroke="#CE454B" stroke-width="0.273904" stroke-miterlimit="10"/>
<path d="M80.0001 281.47C80.2001 255.751 93.8334 230.813 115.5 215.157C129.833 204.813 147.567 198.657 165.633 197.782C170.867 197.532 176.033 197.782 181.067 198.47C195.033 200.376 208 205.47 221.8 209.188C224.6 209.938 227.4 210.626 230.233 211.251C242.8 213.97 255.867 214.501 267.8 210.938C274.3 208.97 280.433 205.782 285.9 201.188C292.7 195.47 297.8 188.251 302.9 181.063C303.633 180.032 304.367 178.97 305.133 177.97C317.867 160.282 332.967 151.626 349.233 149.22C351.667 148.845 354.133 148.595 356.6 148.438C366.8 147.782 377.567 149.001 389.367 150.407C398.033 151.438 407.533 152.595 417.333 153.126C424.067 153.501 430.967 153.563 437.833 153.001C454.633 151.626 470.733 144.845 474.7 137.72" stroke="#CE454B" stroke-width="0.273904" stroke-miterlimit="10"/>
<path d="M77.6667 281.502C77.7667 256.064 91.0667 231.314 112.4 215.658C126.767 205.127 144.7 198.846 162.933 198.002C168.2 197.752 173.4 198.002 178.533 198.721C192.633 200.658 205.733 205.877 219.6 209.689C222.4 210.471 225.233 211.189 228.1 211.814C240.8 214.627 254 215.252 266 211.596C272.567 209.627 278.7 206.377 284.167 201.627C290.967 195.783 295.967 188.408 301.1 181.127C301.833 180.064 302.6 179.033 303.333 177.971C316.233 160.096 332.467 152.127 349.567 150.846C352.133 150.658 354.7 150.564 357.267 150.596C367.867 150.689 378.867 152.689 390.833 154.689C399.633 156.158 409.2 157.689 419.1 158.377C425.9 158.877 432.867 158.971 439.8 158.346C456.733 156.814 472.967 149.096 476.367 140.752" stroke="#CE454B" stroke-width="0.273904" stroke-miterlimit="10"/>
<path d="M75.3668 281.564C75.3668 256.408 88.3668 231.846 109.333 216.221C123.767 205.471 141.833 199.096 160.267 198.252C165.567 198.002 170.833 198.283 176 199.002C190.233 201.002 203.467 206.283 217.4 210.221C220.233 211.033 223.1 211.783 225.967 212.408C238.767 215.346 252.133 216.002 264.2 212.314C270.8 210.314 277 207.002 282.467 202.158C289.267 196.189 294.2 188.658 299.367 181.283C300.1 180.221 300.867 179.158 301.633 178.096C314.7 160.033 332.1 152.721 350.033 152.564C352.733 152.533 355.4 152.627 358.067 152.814C369.067 153.658 380.3 156.439 392.4 159.033C401.3 160.939 411 162.846 420.967 163.721C427.833 164.346 434.867 164.502 441.833 163.783C458.933 162.064 475.267 153.439 478.133 143.846" stroke="#CE454B" stroke-width="0.273904" stroke-miterlimit="10"/>
<path d="M73.0668 281.596C72.9668 256.721 85.6335 232.346 106.233 216.752C120.7 205.814 138.967 199.314 157.567 198.502C162.9 198.252 168.233 198.533 173.433 199.283C187.8 201.314 201.133 206.721 215.167 210.752C218.033 211.564 220.9 212.346 223.8 213.033C236.733 216.064 250.2 216.783 262.4 213.033C269.033 211.002 275.267 207.627 280.767 202.658C287.567 196.533 292.4 188.877 297.6 181.408C298.367 180.346 299.1 179.252 299.867 178.189C313.1 159.908 331.633 153.314 350.4 154.283C353.2 154.439 356 154.689 358.767 155.064C370.2 156.658 381.633 160.189 393.9 163.439C402.933 165.814 412.7 168.033 422.767 169.127C429.7 169.877 436.8 170.064 443.833 169.283C461.067 167.408 477.567 157.877 479.833 147.002" stroke="#CE454B" stroke-width="0.273904" stroke-miterlimit="10"/>
<path d="M70.7667 281.627C70.5667 257.033 82.9334 232.846 103.167 217.252C117.667 206.096 136.133 199.502 154.9 198.689C160.3 198.471 165.633 198.721 170.933 199.471C185.4 201.533 198.9 207.033 213 211.189C215.867 212.033 218.767 212.846 221.7 213.533C234.733 216.689 248.367 217.471 260.633 213.658C267.333 211.596 273.567 208.158 279.1 203.064C285.9 196.814 290.667 188.971 295.867 181.439C296.633 180.346 297.367 179.283 298.167 178.189C311.567 159.721 331.267 153.814 350.833 155.908C353.767 156.221 356.667 156.658 359.533 157.221C371.367 159.533 383.033 163.877 395.433 167.721C404.567 170.533 414.433 173.127 424.6 174.408C431.6 175.283 438.767 175.502 445.867 174.658C463.267 172.627 479.867 162.158 481.6 150.033" stroke="#CE454B" stroke-width="0.273904" stroke-miterlimit="10"/>
<path d="M68.4333 281.657C68.1333 257.345 80.1666 233.313 100.067 217.782C114.633 206.407 133.267 199.72 152.2 198.938C157.633 198.72 163.033 198.97 168.367 199.751C182.967 201.876 196.6 207.47 210.767 211.751C213.667 212.626 216.567 213.438 219.533 214.188C232.7 217.438 246.433 218.282 258.8 214.407C265.533 212.313 271.833 208.813 277.367 203.626C284.167 197.251 288.833 189.251 294.067 181.657C294.833 180.563 295.6 179.47 296.367 178.376C309.933 159.688 330.767 154.501 351.2 157.72C354.233 158.188 357.267 158.813 360.233 159.563C372.467 162.626 384.367 167.751 396.933 172.188C406.167 175.47 416.167 178.407 426.4 179.845C433.467 180.845 440.667 181.095 447.867 180.22C465.4 178.032 482.133 166.626 483.3 153.282" stroke="#CE454B" stroke-width="0.273904" stroke-miterlimit="10"/>
<path d="M66.1333 281.689C65.7333 257.658 77.4333 233.814 96.9667 218.314C111.567 206.721 130.367 199.939 149.467 199.158C154.933 198.939 160.4 199.221 165.767 200.002C180.5 202.158 194.267 207.846 208.5 212.252C211.433 213.158 214.367 214.002 217.333 214.752C230.6 218.127 244.5 219.002 256.933 215.096C263.7 212.971 270.033 209.408 275.567 204.096C282.367 197.596 286.967 189.439 292.2 181.752C292.967 180.627 293.733 179.533 294.533 178.439C308.3 159.564 330.267 155.002 351.5 159.408C354.667 160.064 357.8 160.846 360.867 161.783C373.5 165.596 385.6 171.471 398.333 176.533C407.7 180.252 417.767 183.564 428.1 185.189C435.233 186.314 442.5 186.627 449.733 185.658C467.433 183.283 484.267 170.971 484.867 156.377" stroke="#CE454B" stroke-width="0.273904" stroke-miterlimit="10"/>
<path d="M63.8333 281.72C63.3333 257.97 74.6667 234.283 93.9 218.814C108.5 207.002 127.533 200.127 146.8 199.377C152.3 199.158 157.8 199.439 163.233 200.252C178.1 202.439 191.967 208.252 206.3 212.752C209.233 213.689 212.2 214.533 215.2 215.314C228.6 218.783 242.633 219.72 255.133 215.752C261.933 213.595 268.3 209.97 273.867 204.533C280.667 197.908 285.167 189.595 290.433 181.814C291.2 180.689 291.967 179.564 292.767 178.47C306.7 159.377 329.833 155.564 351.867 161.033C355.167 161.845 358.4 162.845 361.567 163.939C374.633 168.502 386.933 175.158 399.833 180.845C409.3 185.002 419.467 188.689 429.9 190.502C437.1 191.752 444.433 192.095 451.733 191.064C469.6 188.533 486.533 175.283 486.6 159.439" stroke="#CE454B" stroke-width="0.273904" stroke-miterlimit="10"/>
<path d="M61.5332 281.752C60.9332 258.283 71.9666 234.783 90.8332 219.346C109.7 203.908 136 196.814 160.733 200.502C178.833 203.189 195.467 211.221 213.067 215.908C233.933 221.439 256.367 220.814 272.167 205.033C279.933 197.283 284.6 187.346 291.033 178.564C305.133 159.283 329.433 156.158 352.3 162.752C369.733 167.783 385.167 177.408 401.367 185.221C417.6 193.033 435.767 199.221 453.767 196.533C471.767 193.846 488.867 179.658 488.333 162.564" stroke="white" stroke-width="0.273904" stroke-miterlimit="10"/>
<path d="M66.1334 281.719C66.3334 258.782 77.8667 236.313 96.7334 221.251C98.9 219.532 101.133 217.907 103.467 216.376C121.467 204.626 144.067 199.032 165.367 201.438C175.3 202.563 184.767 205.282 194.2 208.157C201.467 210.376 208.733 212.657 216.2 214.313C236.4 218.876 258.133 217.563 273.7 201.938C281.367 194.251 286.133 184.469 292.6 175.844C306.667 157.032 330.633 153.813 353.167 160.251C357.433 161.469 361.6 162.969 365.7 164.657C378.033 169.782 389.567 176.626 401.6 182.438C404.333 183.782 407.167 185.063 410 186.251C423.733 192.032 438.6 195.782 453.3 193.626C471.067 191.001 487.967 177.282 487.933 160.626" stroke="white" stroke-width="0.273904" stroke-miterlimit="10"/>
<path d="M70.7334 281.688C71.7001 259.313 83.7667 237.876 102.633 223.188C104.8 221.501 107.033 219.907 109.367 218.407C127.267 206.844 149.333 200.876 170.067 202.438C179.733 203.157 188.9 205.407 198.033 207.782C205.1 209.594 212.133 211.501 219.333 212.782C238.9 216.376 259.9 214.376 275.2 198.907C282.767 191.251 287.633 181.657 294.133 173.219C308.2 154.938 331.8 151.594 354.033 157.813C358.267 159.001 362.367 160.469 366.4 162.126C378.567 167.157 389.933 173.969 401.767 179.751C404.467 181.063 407.233 182.344 410.033 183.532C423.567 189.251 438.233 192.907 452.767 190.813C470.3 188.282 487 175.001 487.467 158.751" stroke="white" stroke-width="0.273904" stroke-miterlimit="10"/>
<path d="M75.3332 281.658C77.0999 259.814 89.6665 239.408 108.533 225.126C110.7 223.501 112.933 221.939 115.233 220.47C133.033 209.095 154.6 202.72 174.7 203.439C184.1 203.751 193 205.501 201.833 207.376C208.667 208.814 215.467 210.283 222.433 211.251C241.333 213.845 261.633 211.189 276.7 195.845C284.167 188.22 289.133 178.814 295.667 170.533C309.733 152.751 332.967 149.314 354.867 155.314C359.033 156.47 363.1 157.908 367.1 159.533C379.133 164.47 390.3 171.251 401.967 176.97C404.633 178.283 407.367 179.533 410.133 180.72C423.5 186.376 437.967 189.939 452.3 187.908C469.633 185.47 486.1 172.626 487.067 156.783" stroke="white" stroke-width="0.273904" stroke-miterlimit="10"/>
<path d="M79.9335 281.626C82.4668 260.345 95.5668 240.97 114.433 227.033C116.6 225.439 118.833 223.907 121.133 222.47C138.833 211.314 159.833 204.532 179.367 204.407C188.467 204.345 197.1 205.595 205.667 206.97C212.267 208.033 218.867 209.095 225.6 209.689C243.867 211.283 263.433 208.001 278.233 192.782C285.6 185.189 290.633 175.97 297.233 167.876C311.3 150.595 334.167 147.032 355.767 152.876C359.9 154.001 363.9 155.376 367.833 157.001C379.7 161.876 390.7 168.595 402.167 174.282C404.8 175.595 407.467 176.845 410.2 178.001C423.367 183.595 437.667 187.064 451.8 185.095C468.9 182.72 485.167 170.345 486.633 154.939" stroke="white" stroke-width="0.273904" stroke-miterlimit="10"/>
<path d="M84.5334 281.595C87.8667 260.845 101.467 242.501 120.333 228.97C122.5 227.407 124.733 225.938 127 224.501C144.6 213.532 165.1 206.376 184.033 205.376C192.867 204.907 201.233 205.657 209.467 206.563C215.833 207.251 222.2 207.907 228.7 208.157C246.3 208.782 265.2 204.813 279.7 189.751C286.967 182.22 292.1 173.188 298.733 165.22C312.767 148.438 335.3 144.782 356.567 150.407C360.633 151.47 364.6 152.845 368.5 154.438C380.2 159.22 391.033 165.907 402.333 171.563C404.933 172.845 407.567 174.095 410.267 175.251C423.233 180.782 437.333 184.157 451.3 182.282C468.167 180.001 484.233 168.063 486.2 153.063" stroke="white" stroke-width="0.273904" stroke-miterlimit="10"/>
<path d="M89.1334 281.562C93.2667 261.343 107.367 244.031 126.233 230.906C128.4 229.406 130.633 227.937 132.9 226.562C150.4 215.781 170.367 208.218 188.733 206.375C197.3 205.5 205.367 205.781 213.333 206.187C219.5 206.5 225.6 206.75 231.867 206.625C248.8 206.281 267 201.625 281.267 186.718C288.4 179.218 293.633 170.375 300.333 162.562C314.367 146.25 336.533 142.5 357.5 147.968C361.533 149 365.433 150.343 369.267 151.906C380.833 156.593 391.467 163.25 402.6 168.843C405.133 170.125 407.733 171.343 410.4 172.5C423.167 178 437.1 181.25 450.867 179.437C467.5 177.25 483.367 165.75 485.833 151.187" stroke="white" stroke-width="0.273904" stroke-miterlimit="10"/>
<path d="M93.7334 281.533C98.6334 261.876 113.267 245.595 132.133 232.814C134.3 231.345 136.5 229.939 138.767 228.564C156.167 217.97 175.6 210.033 193.367 207.345C201.667 206.064 209.467 205.845 217.133 205.783C223.067 205.72 228.967 205.564 235 205.064C251.3 203.72 268.767 198.408 282.767 183.626C289.8 176.158 295.133 167.501 301.9 159.876C315.9 144.064 337.767 140.22 358.367 145.47C362.333 146.47 366.2 147.783 370 149.314C381.4 153.939 391.833 160.533 402.8 166.095C405.3 167.376 407.867 168.595 410.467 169.72C423.033 175.158 436.767 178.314 450.367 176.564C466.767 174.439 482.433 163.408 485.4 149.251" stroke="white" stroke-width="0.273904" stroke-miterlimit="10"/>
<path d="M98.3334 281.471C104.033 262.346 119.167 247.096 138.033 234.721C140.2 233.315 142.4 231.909 144.667 230.565C161.967 220.19 180.867 211.846 198.067 208.284C206.1 206.596 213.6 205.909 220.967 205.315C226.667 204.846 232.333 204.315 238.133 203.471C253.767 201.159 270.533 195.159 284.3 180.534C291.233 173.128 296.633 164.628 303.467 157.159C317.433 141.846 338.967 137.909 359.267 142.971C363.167 143.94 367 145.19 370.733 146.69C382 151.221 392.233 157.784 403.033 163.315C405.5 164.565 408.033 165.784 410.6 166.909C422.967 172.284 436.533 175.346 449.933 173.659C466.1 171.628 481.567 161.034 485.033 147.284" stroke="white" stroke-width="0.273904" stroke-miterlimit="10"/>
<path d="M102.967 281.438C109.433 262.845 125.1 248.626 143.967 236.626C146.133 235.251 148.333 233.907 150.567 232.595C167.767 222.407 186.133 213.657 202.733 209.251C210.467 207.188 217.733 205.97 224.8 204.907C230.267 204.063 235.7 203.126 241.267 201.907C256.233 198.626 272.3 191.938 285.8 177.47C292.633 170.095 298.133 161.782 305 154.501C318.933 139.688 340.133 135.626 360.1 140.501C363.967 141.438 367.733 142.657 371.433 144.126C382.533 148.563 392.6 155.095 403.2 160.563C405.633 161.813 408.1 163.001 410.633 164.126C422.8 169.438 436.2 172.407 449.4 170.782C465.333 168.813 480.633 158.657 484.567 145.376" stroke="white" stroke-width="0.273904" stroke-miterlimit="10"/>
<path d="M107.567 281.408C114.833 263.377 131 250.189 149.867 238.564C152.033 237.22 154.233 235.908 156.433 234.627C173.533 224.627 191.4 215.502 207.4 210.252C214.867 207.783 221.833 206.095 228.6 204.533C233.867 203.314 239.033 201.97 244.4 200.408C258.7 196.158 274.1 188.783 287.333 174.439C294.067 167.095 299.633 158.97 306.567 151.845C320.467 137.502 341.333 133.377 361 138.033C364.8 138.939 368.533 140.127 372.167 141.564C383.133 145.908 393 152.408 403.433 157.845C405.833 159.095 408.267 160.283 410.767 161.377C422.767 166.627 435.933 169.502 448.967 167.97C464.667 166.095 479.767 156.377 484.2 143.502" stroke="white" stroke-width="0.273904" stroke-miterlimit="10"/>
<path d="M112.167 281.376C120.2 263.876 136.9 251.72 155.767 240.501C157.934 239.22 160.134 237.938 162.334 236.657C179.334 226.845 196.667 217.345 212.067 211.22C219.267 208.345 225.967 206.157 232.434 204.126C237.467 202.532 242.434 200.813 247.534 198.845C261.167 193.626 275.867 185.595 288.834 171.376C295.467 164.095 301.134 156.126 308.1 149.188C321.967 135.345 342.5 131.095 361.833 135.595C365.6 136.47 369.267 137.626 372.833 139.032C383.633 143.313 393.334 149.782 403.6 155.157C405.967 156.376 408.334 157.563 410.8 158.657C422.6 163.845 435.6 166.626 448.434 165.157C463.9 163.376 478.8 154.095 483.733 141.657" stroke="white" stroke-width="0.273904" stroke-miterlimit="10"/>
<path d="M116.767 281.345C125.6 264.377 142.8 253.252 161.667 242.408C163.833 241.158 166.033 239.939 168.2 238.689C185.1 229.095 201.9 219.158 216.733 212.22C223.667 208.939 230.1 206.283 236.267 203.72C241.067 201.752 245.8 199.627 250.667 197.314C263.667 191.127 277.633 182.408 290.333 168.345C296.867 161.095 302.6 153.314 309.633 146.533C323.467 133.158 343.667 128.845 362.7 133.127C366.4 133.97 370.033 135.064 373.567 136.47C384.233 140.658 393.733 147.095 403.8 152.408C406.1 153.627 408.467 154.783 410.867 155.877C422.467 161.033 435.3 163.72 447.933 162.283C463.167 160.564 477.867 151.752 483.3 139.72" stroke="#CE454B" stroke-width="0.273904" stroke-miterlimit="10"/>
<path d="M121.367 281.313C130.967 264.907 148.7 254.813 167.567 244.344C169.733 243.157 171.9 241.938 174.1 240.719C190.933 231.313 207.167 221.001 221.4 213.188C228.067 209.532 234.2 206.344 240.067 203.313C244.667 200.938 249.133 198.438 253.8 195.751C266.133 188.626 279.4 179.188 291.867 165.282C298.3 158.063 304.133 150.469 311.2 143.844C325 130.969 344.867 126.563 363.567 130.657C367.233 131.438 370.8 132.532 374.267 133.907C384.767 138.001 394.1 144.407 404 149.688C406.267 150.907 408.6 152.063 410.967 153.126C422.367 158.219 435 160.813 447.467 159.438C462.5 157.813 476.967 149.438 482.9 137.813" stroke="#CE454B" stroke-width="0.273904" stroke-miterlimit="10"/>
<path d="M125.967 281.282C136.367 265.407 154.6 256.344 173.467 246.282C175.633 245.126 177.8 243.969 179.967 242.751C196.7 233.532 212.4 222.844 226.067 214.157C232.433 210.094 238.333 206.438 243.9 202.907C248.267 200.157 252.5 197.251 256.933 194.188C268.6 186.094 281.167 175.969 293.367 162.188C299.7 155.001 305.6 147.594 312.767 141.157C326.533 128.751 346.067 124.251 364.433 128.157C368.033 128.907 371.567 129.969 375 131.313C385.367 135.344 394.5 141.688 404.233 146.907C406.467 148.094 408.733 149.251 411.067 150.313C422.267 155.344 434.733 157.844 447 156.532C461.8 154.969 476.067 147.063 482.5 135.876" stroke="#CE454B" stroke-width="0.273904" stroke-miterlimit="10"/>
<path d="M130.567 281.22C141.767 265.876 160.5 257.845 179.367 248.157C181.533 247.032 183.7 245.907 185.867 244.751C202.5 235.72 217.667 224.626 230.733 215.126C236.833 210.657 242.433 206.501 247.733 202.501C251.867 199.376 255.9 196.095 260.067 192.657C271.1 183.626 282.967 172.782 294.9 159.157C301.133 152.032 307.1 144.782 314.333 138.501C328.067 126.563 347.267 122.001 365.333 125.688C368.867 126.407 372.367 127.438 375.733 128.751C385.933 132.688 394.867 139.001 404.433 144.188C406.633 145.376 408.867 146.501 411.167 147.563C422.167 152.532 434.467 154.938 446.533 153.72C461.1 152.251 475.167 144.782 482.1 134.001" stroke="#CE454B" stroke-width="0.273904" stroke-miterlimit="10"/>
<path d="M135.167 281.189C147.133 266.407 166.4 259.407 185.3 250.095C187.467 249.032 189.633 247.939 191.767 246.782C208.3 237.97 222.933 226.47 235.4 216.095C241.233 211.22 246.567 206.564 251.533 202.064C255.433 198.532 259.233 194.876 263.2 191.064C273.567 181.064 284.733 169.532 296.4 156.064C302.5 148.97 308.567 141.907 315.867 135.814C329.533 124.345 348.467 119.689 366.167 123.22C369.667 123.907 373.1 124.876 376.433 126.157C386.467 130.001 395.233 136.282 404.633 141.439C406.8 142.626 408.967 143.751 411.233 144.782C422.033 149.689 434.133 152.001 446.033 150.845C460.367 149.47 474.233 142.439 481.667 132.095" stroke="#CE454B" stroke-width="0.273904" stroke-miterlimit="10"/>
<path d="M139.767 281.158C152.533 266.908 172.267 260.94 191.2 252.002C193.367 250.971 195.533 249.908 197.667 248.783C214.1 240.158 228.233 228.283 240.1 217.033C245.667 211.752 250.7 206.627 255.4 201.627C259.067 197.721 262.667 193.658 266.367 189.502C276.1 178.565 286.533 166.315 297.967 152.971C303.967 145.908 310.1 139.033 317.467 133.096C331.1 122.127 349.7 117.377 367.1 120.69C370.533 121.346 373.933 122.283 377.2 123.533C387.1 127.315 395.667 133.533 404.867 138.627C406.967 139.815 409.133 140.908 411.333 141.94C421.967 146.783 433.867 149.002 445.567 147.908C459.667 146.596 473.333 140.033 481.267 130.096" stroke="#CE454B" stroke-width="0.273904" stroke-miterlimit="10"/>
<path d="M144.367 281.127C157.9 267.44 178.167 262.502 197.1 253.94C199.267 252.971 201.433 251.94 203.533 250.846C219.867 242.409 233.467 230.127 244.733 218.065C250.033 212.409 254.767 206.752 259.2 201.284C262.633 197.002 266 192.534 269.467 188.002C278.567 176.096 288.267 163.19 299.433 149.971C305.333 142.971 311.567 136.221 318.967 130.471C332.533 119.94 350.833 115.159 367.9 118.284C371.3 118.909 374.633 119.815 377.867 121.034C387.6 124.721 396 130.909 405.033 135.971C407.1 137.127 409.233 138.252 411.4 139.252C421.833 144.065 433.533 146.159 445.067 145.127C458.933 143.909 472.4 137.784 480.833 128.252" stroke="#CE454B" stroke-width="0.273904" stroke-miterlimit="10"/>
<path d="M148.967 281.095C163.3 267.939 184.067 264.032 203 255.876C205.167 254.938 207.3 253.938 209.4 252.876C225.633 244.626 238.7 231.97 249.4 219.032C254.4 212.97 258.9 206.813 263 200.876C266.233 196.188 269.367 191.376 272.567 186.47C281 173.626 290 160.001 300.9 146.938C306.7 139.97 313 133.407 320.467 127.845C334 117.782 351.967 112.907 368.733 115.845C372.067 116.438 375.333 117.313 378.533 118.501C388.133 122.095 396.333 128.251 405.2 133.282C407.233 134.439 409.3 135.532 411.434 136.501C421.667 141.251 433.2 143.251 444.533 142.282C458.167 141.126 471.467 135.47 480.367 126.376" stroke="#CE454B" stroke-width="0.273904" stroke-miterlimit="10"/>
<path d="M153.567 281.064C168.667 268.439 189.967 265.564 208.9 257.782C211.067 256.876 213.2 255.939 215.3 254.876C231.433 246.845 243.967 233.783 254.067 220.001C258.8 213.533 263 206.908 266.833 200.47C269.833 195.408 272.733 190.189 275.733 184.907C283.567 171.095 291.833 156.782 302.467 143.876C308.167 136.939 314.533 130.564 322.067 125.158C335.533 115.564 353.2 110.626 369.633 113.376C372.933 113.908 376.133 114.783 379.3 115.939C388.733 119.47 396.767 125.564 405.433 130.532C407.433 131.689 409.467 132.751 411.567 133.72C421.6 138.407 432.967 140.314 444.1 139.439C457.5 138.376 470.6 133.158 480 124.47" stroke="#CE454B" stroke-width="0.273904" stroke-miterlimit="10"/>
<path d="M158.167 281.033C175.9 267.564 200.967 266.814 221.167 256.939C244.7 245.408 259.6 221.783 270.633 200.064C284.567 172.72 296.4 141.001 323.6 122.47C339.7 111.501 361.467 106.501 380 113.345C391.433 117.564 400.667 125.783 411.633 130.939C433.3 141.126 461.433 137.658 479.567 122.564" stroke="#CE454B" stroke-width="0.273904" stroke-miterlimit="10"/>
</g>
</svg>
