<svg width="19" height="20" viewBox="0 0 19 20" fill="none" xmlns="http://www.w3.org/2000/svg">
<path d="M18.67 10C18.67 15.1556 14.4906 19.335 9.335 19.335C4.17942 19.335 0 15.1556 0 10C0 4.84446 4.17942 0.665039 9.335 0.665039C14.4906 0.665039 18.67 4.84446 18.67 10Z" fill="#C76831"/>
<path d="M3.44676 17.2441C3.95193 14.758 6.39604 12.8723 9.335 12.8723C12.274 12.8723 14.7181 14.758 15.2232 17.2441C13.6169 18.5514 11.5675 19.335 9.335 19.335C7.10252 19.335 5.05307 18.5514 3.44676 17.2441Z" fill="white"/>
<path d="M12.2073 8.7434C12.2073 10.3628 10.8945 11.6756 9.27516 11.6756C7.65578 11.6756 6.34301 10.3628 6.34301 8.7434C6.34301 7.12402 7.65578 5.81126 9.27516 5.81126C10.8945 5.81126 12.2073 7.12402 12.2073 8.7434Z" fill="white"/>
</svg>
