<svg width="113" height="113" viewBox="0 0 113 113" fill="none" xmlns="http://www.w3.org/2000/svg">
<path fill-rule="evenodd" clip-rule="evenodd" d="M0 0H0.000108394V112.529H0V0ZM112.816 0.024586L112.791 0H112.816V0.024586ZM56.2349 16.3973L44.7584 46.6718V51.7578L45.952 50.2619L47.6275 47.5693L48.6375 45.4751L55.6611 23.8767V24.7397V25.3151V27.0411V28.6233V30.9247V34.2329V35.8151V37.6849V39.2671V40.1301V40.8493V42V43.1507V44.589V46.0274V46.3151V52.9935V59.7781V69.4726V72.4931L55.661 75.5783V78.1027V80.4041L55.6611 83.4247V86.1575L55.6611 92.0548L56.2349 105L57.0956 92.0548V89.1153V86.1575L57.0956 83.4247V81.5548V51.2055V49.4795V47.7534V45.5959V43.4384V39.1233V37.8288V36.5342V35.3308V31.6438V29.4863V28.3595V25.0274V23.8767L63.9815 45.4751L65.0488 47.5693L67.2884 50.7373V45.5363L56.2349 16.3973ZM68.7201 48.2097V53.5445V56.0714L68.9279 58.3857L68.8705 63.8515L68.7201 63.8744V67.9134H68.8705V71.8027L68.9279 76.8888L69.3354 83.4707H69.6223L70.0526 76.8888V71.8027L70.0583 69.8926L83.5489 78.6838L84.5417 78.3847L70.068 66.5844L70.0975 56.5447L75.326 61.3315L77.2828 63.1266L79.6297 65.2899L83.503 68.4542L87.428 71.2044L91.9038 73.897L97.5732 76.5896L106.169 79.8805L107.03 79.6734L102.296 77.2282L94.8877 72.9995L88.3232 68.811L86.2287 67.1597L83.5489 64.9216L80.565 62.229L79.0731 60.7332L77.8796 59.5364L74.0005 55.3479L70.1163 50.1335L70.1616 34.7047H69.8747L68.9279 45.4405L68.8705 48.4611L68.7201 48.2097ZM67.2884 67.4344V63.472L65.5595 61.3315L62.547 53.5529L60.5386 47.7534H60.2517L61.8297 94.0685H61.9731L62.6904 86.3014L63.5569 63.4258L67.2884 67.4344ZM42.3713 34.7047L41.7745 50.2619L38.1939 55.6471L34.3148 60.1348L30.7341 63.7249L27.4519 66.4175L22.0809 70.3068L16.1131 73.897L10.4437 76.8888L4.17755 79.5814L5.07272 79.8805L10.1453 78.3847L16.4115 75.9912L21.1857 73.5978L25.3631 71.2044L29.5406 68.2126L32.8229 65.52L36.7019 61.9299L39.3874 59.2373L41.4761 56.5447V67.6142L28.347 78.3847L29.2422 78.6838L42.0729 69.8926V76.8888L42.3713 83.4707H42.6697L43.2665 76.8888L43.1919 45.4405L42.6697 34.7047H42.3713ZM51.9312 47.7534L49.9228 53.5529L46.8471 61.3315L44.7584 64.0241V67.9134L49.5326 63.4258L49.5326 75.3929L50.0663 86.3014L50.7836 94.0685H50.927L52.2181 47.7534H51.9312Z" fill="#C2581B"/>
</svg>
