<svg width="479" height="34" viewBox="0 0 479 34" fill="none" xmlns="http://www.w3.org/2000/svg">
<path fill-rule="evenodd" clip-rule="evenodd" d="M11.2944 19.5451C10.7989 19.855 10.0524 20.3569 9.47492 20.9029C8.52684 21.7982 8.32845 23.0402 8.82859 23.3303C9.29123 23.5985 10.3713 23.2794 11.1443 22.4362C11.9556 21.551 12.2902 20.4288 11.9446 19.1549C11.904 19.1791 11.8642 19.2034 11.8251 19.226L11.8259 19.2277L11.7735 19.2574C11.5718 19.3778 11.407 19.4771 11.2944 19.5451ZM25.2173 19.1432C24.9366 19.7531 24.9226 19.9494 25.0078 20.0104C25.415 19.8641 26.0888 19.5116 26.0941 18.5668C26.0949 18.4253 26.0637 18.2735 26.0136 18.1148C25.5783 18.5003 25.3273 18.9039 25.2173 19.1432ZM29.5869 17.2992C28.499 17.1724 27.6501 17.3249 26.9913 17.5994C27.1133 17.9169 27.2071 18.2477 27.2203 18.5808C27.2509 19.3121 26.7475 19.8533 26.223 20.2396C25.9167 20.4649 25.5907 20.615 25.3171 20.7057C25.0984 20.7979 24.8076 20.8933 24.6012 20.8512C24.1462 20.7587 23.9041 20.3546 24.2136 19.4631C24.3808 18.9806 24.863 18.2462 25.6415 17.6136C25.4641 17.2483 25.2663 16.8762 25.1655 16.5342C24.9669 15.8602 24.9069 15.4528 24.9069 15.4528C24.9069 15.4528 24.2653 16.783 23.4375 17.9928C23.3897 18.0631 23.3421 18.1321 23.2944 18.2008C23.457 18.5786 23.5851 18.9782 23.6024 19.381C23.6329 20.1122 23.3163 20.6651 22.791 21.0506C22.5067 21.2602 22.2033 21.405 21.943 21.4972C21.7766 21.5699 21.4381 21.6894 20.9567 21.7216C20.6934 21.7396 20.4401 21.7233 20.2987 21.6161C20.1041 21.4691 20.0806 21.2876 20.1814 21.0397C20.2667 20.8293 20.9044 20.1013 21.439 19.4639C21.5867 19.2879 21.7274 19.1081 21.8532 18.9415L21.8501 18.9344C21.8501 18.9344 21.947 18.8094 22.1041 18.5912C21.9087 18.1704 21.661 17.7324 21.5445 17.3352C21.3459 16.6611 21.2858 16.2536 21.2858 16.2536C21.2858 16.2536 20.6354 17.921 19.9579 19.252C19.4336 20.2829 19.0833 20.9076 18.9255 21.1813L18.9239 21.1923C18.9239 21.1923 18.9004 21.2322 18.8598 21.2948L18.8294 21.3455L18.8286 21.3408C18.6527 21.6006 18.258 22.1096 17.8657 22.1096C16.7887 22.1096 17.1841 19.9222 17.1841 19.9222C17.1841 19.9222 16.8692 20.7324 16.5143 21.4276C16.2253 21.9946 15.9619 22.4749 15.3859 22.4749C15.2202 22.4749 14.9575 22.4701 14.7394 22.2628C14.2447 21.7928 13.8665 20.5993 13.9406 19.675C14.0039 18.8891 14.1251 18.3447 14.2907 17.8905C13.9953 18.0515 13.6538 18.2424 13.306 18.4466L12.7713 18.7617L12.7886 18.793C13.2309 19.6486 13.349 21.5231 12.3845 22.9621C11.4201 24.4018 9.62483 25.2777 7.87572 24.7913C7.31132 24.634 6.45872 23.4665 7.19412 21.839C7.84279 20.4039 10.4352 19.0471 11.1184 18.7085L11.306 18.6052C9.94384 17.4134 6.54236 15.8056 6.06565 13.3358C5.93119 12.6406 6.25712 10.978 8.29851 9.06672C10.0156 7.45964 12.4041 6.22867 14.6105 5.44426C18.3174 4.12656 22.2339 4.90384 22.8364 7.26721C23.4289 9.59148 21.4125 12.3717 18.8302 13.3711C16.5246 14.2634 14.6183 14.1219 13.8351 13.8646C12.9449 13.5722 12.4228 12.9848 12.2955 12.6532C12.2454 12.5234 12.1593 12.3053 12.2955 12.2302C12.379 12.184 12.4126 12.195 12.6361 12.4421C12.8488 12.6767 13.7038 13.3063 15.3279 13.124C19.5899 12.6463 22.1572 9.33267 21.3459 7.54957C20.7778 6.30145 17.4929 5.73833 13.3888 7.78493C8.37895 10.2828 8.10704 12.3419 8.0641 13.124C7.94679 15.2754 10.7174 16.407 12.2165 18.007L12.2743 18.0704C12.5548 17.9156 12.8512 17.7521 13.1418 17.5926C13.8977 17.1773 14.6105 16.7877 14.9426 16.6063C15.4702 15.8393 16.5409 14.993 17.3139 14.993C18.5495 14.993 18.1251 16.7691 18.1251 16.7691C18.1251 16.7691 18.1502 16.6878 18.1837 16.687C18.2189 16.6861 18.355 16.4531 18.7364 16.5922C19.1287 16.7362 19.0395 17.0115 19.042 17.0396C19.0467 17.0943 18.5785 18.6732 18.3839 19.686C18.2908 20.1693 18.3447 20.5213 18.3722 20.5213C18.4105 20.5213 18.4887 20.3985 18.5614 20.2664L18.5598 20.2624C18.5598 20.2624 18.6144 20.1624 18.7059 19.9825L18.7239 19.9449L18.7247 19.9466C18.8326 19.7354 18.9841 19.4249 19.1592 19.0402C19.5023 18.284 20.8114 15.3645 20.9224 15.0416C21.0333 14.7186 21.0912 14.3847 21.1459 14.2415C21.1998 14.0984 21.6626 13.9905 22.2033 13.9944C22.7442 13.9984 22.799 14.229 22.8028 14.2768C22.8067 14.3244 22.5457 14.965 22.4855 15.4177C22.4261 15.8705 22.4832 16.0964 22.5325 16.4766C22.5645 16.7252 22.72 17.0405 22.9038 17.3978C23.4634 16.4828 24.448 14.7326 24.5426 14.2423C24.6074 13.9068 24.7114 13.5854 24.7662 13.4422C24.8208 13.2991 25.2828 13.1913 25.8236 13.1951C26.3644 13.199 26.4191 13.4297 26.423 13.4774C26.4269 13.5252 26.165 14.1656 26.1057 14.6185C26.0462 15.0705 26.1035 15.2973 26.1526 15.6774C26.1949 16.0027 26.4464 16.4398 26.6959 16.9371C27.3765 16.6016 28.1777 16.3764 29.1156 16.3718C29.504 16.3695 29.955 16.4085 30.1879 16.4812V8.99938C30.1879 8.47154 29.9174 7.98514 29.4603 7.72164L17.2554 0.667429C16.799 0.403826 16.2402 0.403826 15.7837 0.667429L3.61246 7.71823C3.156 7.98184 2.91211 8.46909 2.91211 8.99608V23.1106C2.91211 23.6376 3.15749 24.1248 3.6132 24.3883L15.8041 31.4447C16.2604 31.7091 16.8138 31.7091 17.2702 31.4447L29.4666 24.3883C29.9229 24.124 30.1888 23.6375 30.1888 23.1106V17.4064C30.034 17.3607 29.8073 17.3248 29.5869 17.2992ZM16.4566 16.56C16.1948 16.8533 15.7486 17.6094 15.5398 18.2423C15.1248 19.499 15.3046 20.7761 15.5984 20.8528C15.9415 20.9426 16.5043 19.2629 16.7738 18.6059C16.9427 18.1945 17.5992 16.3686 17.4554 16.1246C17.3431 15.9337 16.8779 16.0878 16.4566 16.56ZM21.2047 20.7956C21.2047 20.7956 21.1219 20.8739 21.1577 20.8957C21.2062 20.9247 21.311 20.8871 21.4251 20.8277C21.7479 20.6245 22.4724 20.1176 22.474 19.3676C22.474 19.3458 22.4731 19.3247 22.4716 19.302C22.3036 19.5225 22.1488 19.7188 22.0152 19.8853C21.7869 20.1692 21.2047 20.7956 21.2047 20.7956Z" fill="white"/>
<g clip-path="url(#clip0_864_716)">
<path fill-rule="evenodd" clip-rule="evenodd" d="M101.03 3.76709H74.9702V29.5552H101.03V26.9639C101.771 27.4085 102.704 27.6768 103.837 27.6768C106.169 27.6768 107.905 26.4659 107.905 24.2562C107.905 22.2063 106.727 21.2945 104.642 20.4005L104.028 20.1375C102.975 19.6814 102.519 19.3831 102.519 18.6469C102.519 18.0511 102.975 17.595 103.694 17.595C104.399 17.595 104.853 17.8922 105.273 18.6469L107.185 17.4197C106.376 15.9976 105.254 15.4544 103.694 15.4544C102.571 15.4544 101.656 15.8218 101.03 16.4274V3.76709ZM101.03 21.1418C100.439 20.542 100.099 19.7717 100.099 18.6967C100.099 17.7983 100.433 17.0047 101.03 16.4274V21.1418ZM101.03 21.1418C101.537 21.657 102.228 22.0465 103.047 22.3951L103.66 22.6583C104.78 23.1479 105.447 23.4462 105.447 24.2877C105.447 24.9899 104.798 25.4983 103.781 25.4983C102.57 25.4983 101.885 24.8669 101.359 24.0076L101.03 24.199V21.1418ZM101.03 24.199V26.9639C100.28 26.5138 99.7268 25.883 99.3642 25.1668L101.03 24.199ZM94.926 25.4983C93.7151 25.4983 93.0306 24.8669 92.5045 24.0076C92.5045 24.0076 90.5099 25.1665 90.5099 25.1671C91.2306 26.5908 92.7033 27.677 94.9829 27.677C97.3146 27.677 99.0504 26.4662 99.0504 24.2565C99.0504 22.2065 97.873 21.2948 95.7874 20.4005L95.1737 20.1375C94.1207 19.6814 93.6645 19.3831 93.6645 18.6469C93.6645 18.0511 94.1201 17.595 94.8392 17.595C95.5441 17.595 95.9981 17.8922 96.4188 18.6469L98.3303 17.4197C97.5219 15.9976 96.3998 15.4544 94.8392 15.4544C92.6469 15.4544 91.2444 16.8558 91.2444 18.6967C91.2444 20.6952 92.421 21.6406 94.1923 22.3951L94.8057 22.6583C95.9254 23.1479 96.5927 23.4462 96.5927 24.2877C96.5927 24.9899 95.9431 25.4983 94.926 25.4983ZM85.4135 25.4831C84.5703 25.4831 84.2194 24.9047 83.8338 24.2205L81.8353 25.43C82.4142 26.655 83.5524 27.6721 85.5177 27.6721C87.6928 27.6721 89.1829 26.5151 89.1829 23.9736V15.5943H86.7285V23.9407C86.7285 25.1676 86.2199 25.4831 85.4135 25.4831Z" fill="white"/>
</g>
<g clip-path="url(#clip1_864_716)">
<path d="M168.033 5.27881L177.115 28.0579H182.095L173.014 5.27881H168.033Z" fill="white"/>
<path d="M157.497 19.0438L160.604 11.0386L163.712 19.0438H157.497ZM158.001 5.27881L148.92 28.0579H153.998L155.855 23.2742H165.354L167.211 28.0579H172.288L163.208 5.27881H158.001Z" fill="white"/>
</g>
<path fill-rule="evenodd" clip-rule="evenodd" d="M232.582 14.9559C232.504 14.7132 232.46 14.3822 232.46 13.9739H232.438V10.3991C232.438 9.18539 232.129 8.28064 231.522 7.68483C230.905 7.08902 229.945 6.79111 228.632 6.79111C228.025 6.79111 227.451 6.85731 226.91 7.00075C226.37 7.13315 225.906 7.29865 225.52 7.49726C225.366 7.57449 225.266 7.65173 225.211 7.72896C225.156 7.80619 225.134 7.9386 225.134 8.11513V8.65578C225.134 8.88748 225.211 8.99782 225.366 8.99782C225.41 8.99782 225.465 8.98678 225.542 8.96471C225.619 8.94265 225.752 8.89851 225.928 8.82128C226.315 8.66681 226.712 8.54544 227.12 8.44614C227.528 8.34684 227.925 8.3027 228.312 8.3027C229.161 8.3027 229.757 8.46821 230.11 8.81025C230.452 9.15228 230.629 9.73706 230.629 10.5756V11.3811C230.187 11.2818 229.768 11.1935 229.36 11.1383C228.952 11.0832 228.565 11.0501 228.19 11.0501C227.054 11.0501 226.16 11.3369 225.487 11.9107C224.814 12.4844 224.483 13.2457 224.483 14.1836C224.483 15.0663 224.759 15.7724 225.3 16.302C225.84 16.8316 226.579 17.0964 227.506 17.0964C228.808 17.0964 229.889 16.5889 230.75 15.5738C230.871 15.8276 230.982 16.0372 231.092 16.2248C231.202 16.4013 231.335 16.5778 231.489 16.7434C231.6 16.8427 231.71 16.8978 231.82 16.8978C231.909 16.8978 232.008 16.8647 232.107 16.7985L232.802 16.3351C232.946 16.2248 233.012 16.1144 233.012 16.0041C233.012 15.9269 232.99 15.8386 232.935 15.7503C232.78 15.4635 232.67 15.1987 232.582 14.9559ZM229.117 15.4524C228.72 15.5848 228.345 15.651 227.981 15.651C227.473 15.651 227.087 15.5186 226.822 15.2428C226.546 14.978 226.414 14.5918 226.414 14.0732C226.414 13.5216 226.59 13.1023 226.955 12.8044C227.319 12.5065 227.859 12.363 228.599 12.363C228.941 12.363 229.283 12.3851 229.636 12.4292C229.989 12.4734 230.331 12.5396 230.651 12.6168V13.0802C230.651 13.4554 230.607 13.7753 230.54 14.0401C230.474 14.3049 230.342 14.5366 230.165 14.7463C229.867 15.0773 229.514 15.32 229.117 15.4524Z" fill="white"/>
<path d="M236.421 16.7323C236.51 16.8096 236.642 16.8427 236.841 16.8427H237.789C237.988 16.8427 238.143 16.8096 238.231 16.7323C238.319 16.6551 238.385 16.5116 238.44 16.291L240.14 9.18539L241.85 16.302C241.894 16.5227 241.971 16.6661 242.059 16.7434C242.148 16.8206 242.291 16.8537 242.501 16.8537H243.45C243.637 16.8537 243.781 16.8096 243.869 16.7434C243.957 16.6771 244.034 16.5337 244.101 16.313L246.76 7.78413C246.804 7.66276 246.826 7.57449 246.837 7.50829C246.839 7.49863 246.84 7.48921 246.842 7.47998C246.851 7.42599 246.859 7.37887 246.859 7.33175C246.859 7.14418 246.76 7.05591 246.583 7.05591H245.557C245.358 7.05591 245.215 7.10005 245.127 7.16625C245.05 7.23245 244.972 7.37589 244.906 7.59656L242.997 14.989L241.254 7.59656C241.21 7.38692 241.133 7.23245 241.044 7.16625C240.956 7.08902 240.813 7.05591 240.603 7.05591H239.72C239.522 7.05591 239.367 7.10005 239.279 7.16625C239.191 7.23245 239.125 7.37589 239.069 7.59656L237.348 14.9008L235.494 7.59656C235.428 7.38692 235.362 7.23245 235.274 7.16625C235.197 7.08902 235.053 7.05591 234.844 7.05591H233.762C233.586 7.05591 233.497 7.15522 233.497 7.33175C233.497 7.40899 233.531 7.55242 233.597 7.77309L236.19 16.302C236.256 16.5116 236.333 16.6661 236.421 16.7323Z" fill="white"/>
<path d="M249.319 16.942C249.871 17.0744 250.445 17.1406 251.019 17.1406C251.581 17.1406 252.1 17.0633 252.596 16.9089C253.071 16.7654 253.479 16.5668 253.821 16.291C254.163 16.0262 254.428 15.6952 254.627 15.32C254.814 14.9449 254.913 14.5146 254.913 14.0401C254.913 13.4664 254.748 12.9478 254.406 12.4954C254.064 12.0431 253.49 11.69 252.696 11.4362L251.129 10.9397C250.544 10.7521 250.136 10.5425 249.915 10.3329C249.695 10.1232 249.584 9.85843 249.584 9.54949C249.584 9.09712 249.761 8.77714 250.103 8.56751C250.445 8.35787 250.941 8.25857 251.57 8.25857C252.354 8.25857 253.06 8.402 253.689 8.68888C253.876 8.77714 254.02 8.82128 254.108 8.82128C254.274 8.82128 254.362 8.69991 254.362 8.46821V7.94963C254.362 7.79516 254.329 7.67379 254.263 7.58552C254.196 7.48622 254.086 7.39795 253.932 7.30969C253.821 7.24348 253.667 7.17728 253.468 7.11108C253.269 7.04488 253.06 6.98971 252.839 6.93455C252.607 6.89041 252.376 6.84628 252.122 6.81318C251.879 6.78008 251.625 6.76904 251.383 6.76904C250.897 6.76904 250.434 6.82421 249.993 6.95661C249.551 7.08902 249.176 7.27659 248.845 7.53036C248.514 7.77309 248.249 8.08203 248.051 8.43511C247.852 8.78818 247.753 9.19642 247.753 9.65983C247.753 10.2336 247.94 10.7742 248.304 11.2597C248.669 11.7562 249.264 12.1313 250.07 12.3851L251.67 12.8816C252.21 13.0582 252.585 13.2457 252.784 13.4554C252.983 13.665 253.082 13.9188 253.082 14.2277C253.082 14.6801 252.883 15.0332 252.508 15.2759C252.133 15.5186 251.592 15.64 250.897 15.64C250.456 15.64 250.026 15.5959 249.584 15.5076C249.154 15.4193 248.746 15.2869 248.371 15.1214C248.332 15.1058 248.294 15.0902 248.258 15.0755C248.194 15.0488 248.138 15.0253 248.095 15.0111C248.029 14.989 247.962 14.978 247.896 14.978C247.731 14.978 247.642 15.0883 247.642 15.32V15.8827C247.642 15.982 247.664 16.0924 247.709 16.1917C247.753 16.291 247.874 16.4013 248.051 16.5006C248.338 16.6661 248.768 16.8096 249.319 16.942Z" fill="white"/>
<path d="M239.665 26.6073C244.2 26.6073 249.474 25.184 253.104 22.5029C253.7 22.0615 253.181 21.3885 252.574 21.6643C248.503 23.3855 244.079 24.2241 240.051 24.2241C234.082 24.2241 228.312 22.5801 223.633 19.8658C223.225 19.6231 222.916 20.0424 223.258 20.3513C227.583 24.2572 233.31 26.6073 239.665 26.6073Z" fill="white"/>
<path d="M250.368 20.6382C251.548 20.4947 254.152 20.1858 254.616 20.7816C255.079 21.3664 254.097 23.8269 253.656 24.9192C253.523 25.2502 253.81 25.3826 254.108 25.1288C256.05 23.4959 256.557 20.0865 256.16 19.59C255.763 19.1045 252.354 18.6852 250.279 20.1417C249.959 20.3734 250.015 20.6823 250.368 20.6382Z" fill="white"/>
<path d="M312.803 0.104142C312.731 0.110627 312.504 0.133324 312.3 0.149536C307.588 0.57429 303.175 3.11633 300.379 7.02342C298.823 9.19583 297.827 11.66 297.451 14.2702C297.318 15.1813 297.302 15.4504 297.302 16.6858C297.302 17.9211 297.318 18.1902 297.451 19.1014C298.352 25.33 302.785 30.5632 308.798 32.5022C309.874 32.8491 311.009 33.0858 312.3 33.2285C312.803 33.2836 314.975 33.2836 315.478 33.2285C317.706 32.9821 319.593 32.4309 321.455 31.4808C321.74 31.3349 321.795 31.296 321.756 31.2636C321.73 31.2441 320.514 29.6132 319.055 27.6418L316.402 24.059L313.078 19.1403C311.249 16.4361 309.745 14.2248 309.732 14.2248C309.719 14.2215 309.706 16.4069 309.699 19.0754C309.69 23.7477 309.686 23.9358 309.628 24.046C309.544 24.2049 309.479 24.2697 309.343 24.3411C309.239 24.3929 309.148 24.4027 308.658 24.4027H308.097L307.948 24.3086C307.851 24.247 307.779 24.166 307.731 24.0719L307.663 23.926L307.669 17.425L307.679 10.9208L307.779 10.7943C307.831 10.7262 307.942 10.6387 308.019 10.5965C308.152 10.5317 308.204 10.5252 308.765 10.5252C309.427 10.5252 309.537 10.5511 309.709 10.7392C309.758 10.7911 311.557 13.5017 313.711 16.7668C315.864 20.0319 318.809 24.4902 320.255 26.6788L322.882 30.6573L323.015 30.5697C324.192 29.8045 325.437 28.7151 326.423 27.5802C328.521 25.1711 329.873 22.2335 330.327 19.1014C330.46 18.1902 330.476 17.9211 330.476 16.6858C330.476 15.4504 330.46 15.1813 330.327 14.2702C329.426 8.04153 324.993 2.8083 318.98 0.869348C317.92 0.525654 316.791 0.288959 315.527 0.146293C315.215 0.113869 313.072 0.0782031 312.803 0.104142ZM319.593 10.1361C319.749 10.2139 319.875 10.3631 319.921 10.5187C319.947 10.603 319.953 12.4058 319.947 16.4685L319.937 22.2984L318.909 20.7226L317.878 19.1467V14.9089C317.878 12.1691 317.891 10.629 317.91 10.5544C317.962 10.3728 318.076 10.2302 318.231 10.1458C318.364 10.0778 318.413 10.0713 318.922 10.0713C319.402 10.0713 319.486 10.0778 319.593 10.1361Z" fill="white"/>
<path fill-rule="evenodd" clip-rule="evenodd" d="M388.08 0.872559C379.134 0.872559 371.881 8.12478 371.881 17.0712C371.881 24.2282 376.522 30.3002 382.959 32.4421C383.768 32.5921 384.065 32.0907 384.065 31.6629C384.065 31.2766 384.05 30.0006 384.043 28.647C379.537 29.6269 378.586 26.7358 378.586 26.7358C377.849 24.8634 376.787 24.3656 376.787 24.3656C375.318 23.3602 376.898 23.3808 376.898 23.3808C378.525 23.4951 379.381 25.0501 379.381 25.0501C380.826 27.5265 383.171 26.8106 384.095 26.3967C384.24 25.3498 384.66 24.6352 385.123 24.2306C381.526 23.821 377.743 22.4321 377.743 16.2252C377.743 14.4567 378.376 13.0116 379.412 11.8772C379.244 11.4692 378.69 9.82169 379.569 7.59044C379.569 7.59044 380.93 7.15508 384.025 9.25087C385.317 8.89196 386.703 8.71197 388.08 8.7058C389.456 8.71197 390.843 8.89196 392.138 9.25087C395.229 7.15508 396.588 7.59044 396.588 7.59044C397.469 9.82169 396.915 11.4692 396.746 11.8772C397.785 13.0116 398.414 14.4567 398.414 16.2252C398.414 22.4468 394.624 23.8167 391.017 24.2178C391.598 24.7205 392.116 25.7062 392.116 27.2175C392.116 29.3849 392.097 31.1293 392.097 31.6629C392.097 32.0939 392.389 32.599 393.21 32.44C399.642 30.2956 404.278 24.2258 404.278 17.0712C404.278 8.12478 397.025 0.872559 388.08 0.872559ZM377.948 23.9479C377.912 24.0284 377.786 24.0525 377.67 23.9973C377.553 23.9444 377.487 23.8347 377.525 23.754C377.56 23.6711 377.687 23.648 377.804 23.7035C377.922 23.7564 377.989 23.8672 377.948 23.9479ZM378.745 24.6589C378.667 24.7305 378.516 24.6972 378.414 24.584C378.308 24.4711 378.288 24.3201 378.366 24.2474C378.446 24.1758 378.592 24.2093 378.699 24.3222C378.805 24.4365 378.825 24.5865 378.745 24.6589ZM379.291 25.5685C379.192 25.6375 379.03 25.5728 378.929 25.4288C378.83 25.2847 378.83 25.112 378.932 25.0428C379.032 24.9736 379.192 25.0358 379.294 25.1788C379.393 25.3252 379.393 25.498 379.291 25.5685ZM380.216 26.6221C380.127 26.72 379.938 26.6937 379.799 26.5601C379.658 26.4295 379.618 26.2441 379.707 26.1462C379.797 26.048 379.987 26.0756 380.127 26.2082C380.267 26.3385 380.31 26.5252 380.216 26.6221ZM381.41 26.9777C381.371 27.1046 381.189 27.1623 381.006 27.1083C380.822 27.0528 380.703 26.9042 380.74 26.776C380.778 26.6483 380.961 26.5882 381.145 26.6459C381.328 26.7012 381.449 26.8487 381.41 26.9777ZM382.77 27.1286C382.775 27.2622 382.619 27.3729 382.427 27.3754C382.233 27.3796 382.076 27.2715 382.074 27.1401C382.074 27.0052 382.226 26.8955 382.42 26.8922C382.612 26.8885 382.77 26.9958 382.77 27.1286ZM384.106 27.0774C384.129 27.2077 383.995 27.3416 383.804 27.3773C383.616 27.4116 383.442 27.3311 383.418 27.2018C383.395 27.0682 383.531 26.9344 383.719 26.8998C383.91 26.8665 384.082 26.9449 384.106 27.0774Z" fill="white"/>
<g clip-path="url(#clip2_864_716)">
<path d="M472.498 13.9529L452.253 20.7113C452.135 19.9989 452.01 19.2109 451.871 18.3296C451.373 15.1868 451.064 13.2012 450.973 11.6894C450.887 10.2596 451.043 9.81788 451.111 9.66028C451.344 9.11488 451.697 8.62963 452.143 8.23872C452.271 8.12674 452.644 7.84057 454.03 7.48077C455.496 7.10128 457.48 6.78088 460.622 6.28318C463.766 5.78549 465.751 5.4765 467.263 5.38525C468.692 5.29919 469.134 5.45576 469.292 5.52316C469.837 5.75623 470.323 6.10921 470.714 6.55588C470.826 6.68445 471.111 7.05565 471.471 8.44299C471.805 9.73286 472.093 11.423 472.498 13.9529Z" fill="white"/>
<path fill-rule="evenodd" clip-rule="evenodd" d="M446.669 19.1396L446.671 19.1528H446.672L446.673 19.1584C447.636 25.2359 448.117 28.2748 449.863 30.2733C450.774 31.3154 451.907 32.139 453.18 32.683C455.62 33.7261 458.661 33.245 464.741 32.2817L464.748 32.2805C470.824 31.318 473.863 30.8366 475.861 29.0912C476.903 28.1803 477.727 27.0462 478.27 25.7733C479.314 23.3335 478.832 20.2924 477.869 14.2121C476.906 8.13089 476.425 5.09078 474.679 3.09169C473.768 2.04956 472.634 1.22593 471.362 0.681999C468.919 -0.361094 465.88 0.120014 459.798 1.0843L459.791 1.08535C453.716 2.04791 450.677 2.5293 448.68 4.27372C447.637 5.18464 446.813 6.31873 446.269 7.59171C445.227 10.0307 445.708 13.0682 446.669 19.1396ZM464.225 29.0321C461.121 29.5236 459.024 29.8523 457.396 29.9508H457.397C455.817 30.0462 455.028 29.8959 454.472 29.6574C453.654 29.3077 452.925 28.7782 452.34 28.1083C451.941 27.6531 451.555 26.948 451.157 25.4176C450.748 23.8385 450.413 21.7429 449.921 18.6385C449.428 15.5342 449.101 13.4376 449.002 11.8087C448.907 10.2306 449.057 9.44045 449.295 8.88469C449.644 8.0664 450.174 7.3374 450.844 6.75185C451.299 6.35472 452.004 5.96693 453.534 5.56981C455.114 5.16025 457.209 4.82534 460.313 4.33282C463.418 3.84135 465.514 3.51266 467.143 3.41416C468.721 3.31876 469.512 3.46911 470.067 3.70759C470.886 4.05725 471.614 4.58672 472.2 5.25668C472.597 5.71186 472.985 6.41694 473.382 7.94736C473.792 9.52652 474.127 11.622 474.618 14.7264C475.11 17.8308 475.439 19.9284 475.537 21.5563C475.633 23.1344 475.482 23.9245 475.244 24.4803C474.895 25.2985 474.365 26.0275 473.695 26.6131C473.24 27.0113 472.535 27.398 471.005 27.7952C469.424 28.2047 467.33 28.5407 464.225 29.0321Z" fill="white"/>
</g>
<defs>
<clipPath id="clip0_864_716">
<rect width="33.1746" height="33.1746" fill="white" transform="translate(74.73 0.0952148)"/>
</clipPath>
<clipPath id="clip1_864_716">
<rect width="33.1746" height="33.1746" fill="white" transform="translate(148.92 0.0952148)"/>
</clipPath>
<clipPath id="clip2_864_716">
<rect width="33.1746" height="33.1746" fill="white" transform="translate(445.683 0.0952148)"/>
</clipPath>
</defs>
</svg>
