<svg width="793" height="55" viewBox="0 0 793 55" fill="none" xmlns="http://www.w3.org/2000/svg">
<path d="M19.7871 38.3281C16.8652 35.5781 15.1465 31.7969 15.1465 27.5C15.1465 23.2031 16.8652 19.4219 19.6152 16.6719C22.0215 14.2656 22.0215 10.4844 19.6152 8.07812C17.209 5.67188 13.4277 5.67188 11.0215 8.07812C6.20898 13.0625 3.11523 19.9375 3.11523 27.5C3.11523 35.0625 6.20898 41.9375 11.1934 46.9219C13.5996 49.3281 17.3809 49.3281 19.7871 46.9219C22.0215 44.5156 22.0215 40.7344 19.7871 38.3281Z" fill="white"/>
<path d="M19.7441 16.6719C22.4941 13.75 26.2754 12.0312 30.5723 12.0312C34.8691 12.0312 38.6504 13.75 41.4004 16.5C43.8066 18.9062 47.5879 18.9062 49.9941 16.5C52.4004 14.0937 52.4004 10.3125 49.9941 7.90625C45.0098 3.09375 38.1348 0 30.5723 0C23.0098 0 16.1348 3.09375 11.1504 8.07813C8.74414 10.4844 8.74414 14.2656 11.1504 16.6719C13.5566 18.9062 17.3379 18.9062 19.7441 16.6719Z" fill="white"/>
<path d="M41.4434 38.3281C38.6934 41.25 34.9121 42.9687 30.6152 42.9687C26.3184 42.9687 22.5371 41.25 19.7871 38.5C17.3809 36.0938 13.5996 36.0938 11.1934 38.5C8.78711 40.9063 8.78711 44.6875 11.1934 47.0938C16.1777 51.9063 23.0527 55 30.6152 55C38.1777 55 45.0527 51.9063 50.0371 46.9219C52.4434 44.5156 52.4434 40.7344 50.0371 38.3281C47.6309 36.0937 43.8496 36.0937 41.4434 38.3281Z" fill="white"/>
<path d="M15.4902 18.3906C18.8126 18.3906 21.5059 15.6973 21.5059 12.375C21.5059 9.05266 18.8126 6.35938 15.4902 6.35938C12.1679 6.35938 9.47461 9.05266 9.47461 12.375C9.47461 15.6973 12.1679 18.3906 15.4902 18.3906Z" fill="#DDD9D9"/>
<path d="M15.4902 48.6406C18.8126 48.6406 21.5059 45.9473 21.5059 42.625C21.5059 39.3027 18.8126 36.6094 15.4902 36.6094C12.1679 36.6094 9.47461 39.3027 9.47461 42.625C9.47461 45.9473 12.1679 48.6406 15.4902 48.6406Z" fill="#DDD9D9"/>
<g clip-path="url(#clip0_901_1427)">
<path d="M126.894 27.3927C126.894 36.6944 132.299 44.7329 140.138 48.5422L128.928 17.8289C127.624 20.7515 126.894 23.9858 126.894 27.3927ZM166.258 26.2068C166.258 23.3026 165.215 21.2913 164.32 19.7258C163.129 17.79 162.012 16.1508 162.012 14.215C162.012 12.0548 163.65 10.044 165.958 10.044C166.062 10.044 166.161 10.057 166.263 10.0628C162.082 6.23244 156.512 3.89382 150.394 3.89382C142.184 3.89382 134.961 8.10602 130.759 14.486C131.31 14.5026 131.83 14.5142 132.271 14.5142C134.729 14.5142 138.534 14.2159 138.534 14.2159C139.801 14.1413 139.95 16.0019 138.685 16.1517C138.685 16.1517 137.412 16.3015 135.995 16.3757L144.553 41.83L149.696 26.4063L146.034 16.3748C144.769 16.3006 143.57 16.1508 143.57 16.1508C142.304 16.0765 142.452 14.1404 143.718 14.215C143.718 14.215 147.599 14.5133 149.908 14.5133C152.366 14.5133 156.171 14.215 156.171 14.215C157.439 14.1404 157.588 16.001 156.322 16.1508C156.322 16.1508 155.046 16.3006 153.632 16.3748L162.125 41.6363L164.469 33.8035C165.485 30.5532 166.258 28.2186 166.258 26.2068ZM150.806 29.4483L143.755 49.9364C145.86 50.5553 148.087 50.8938 150.394 50.8938C153.13 50.8938 155.755 50.4207 158.197 49.5617C158.134 49.4611 158.077 49.3542 158.03 49.238L150.806 29.4483ZM171.014 16.1181C171.115 16.8667 171.172 17.6702 171.172 18.5346C171.172 20.9192 170.727 23.5999 169.385 26.9518L162.207 47.7056C169.193 43.6315 173.892 36.0626 173.892 27.3931C173.893 23.3075 172.849 19.4655 171.014 16.1181ZM150.394 0C135.289 0 123 12.2883 123 27.3927C123 42.4989 135.289 54.7867 150.394 54.7867C165.498 54.7867 177.788 42.4989 177.788 27.3927C177.788 12.2883 165.498 0 150.394 0ZM150.394 53.5311C135.982 53.5311 124.256 41.8054 124.256 27.3927C124.256 12.9809 135.981 1.25606 150.394 1.25606C164.805 1.25606 176.53 12.9809 176.53 27.3927C176.53 41.8054 164.805 53.5311 150.394 53.5311Z" fill="white"/>
</g>
<path d="M273.5 0L301 55H246L273.5 0Z" fill="white"/>
<path fill-rule="evenodd" clip-rule="evenodd" d="M384.701 24.6374C384.573 24.235 384.5 23.6862 384.5 23.0094H384.463V17.0827C384.463 15.0705 383.951 13.5705 382.945 12.5827C381.92 11.5949 380.329 11.101 378.152 11.101C377.146 11.101 376.195 11.2108 375.298 11.4486C374.402 11.6681 373.634 11.9425 372.994 12.2718C372.738 12.3998 372.573 12.5278 372.481 12.6559C372.39 12.7839 372.353 13.0035 372.353 13.2961V14.1925C372.353 14.5766 372.481 14.7595 372.738 14.7595C372.811 14.7595 372.902 14.7412 373.03 14.7046C373.158 14.6681 373.378 14.5949 373.67 14.4668C374.311 14.2108 374.969 14.0095 375.646 13.8449C376.323 13.6803 376.981 13.6071 377.622 13.6071C379.03 13.6071 380.018 13.8815 380.603 14.4486C381.17 15.0156 381.463 15.9851 381.463 17.3753V18.7107C380.731 18.5461 380.036 18.3997 379.359 18.3083C378.683 18.2168 378.042 18.1619 377.42 18.1619C375.536 18.1619 374.055 18.6375 372.939 19.5887C371.823 20.5399 371.274 21.8021 371.274 23.357C371.274 24.8204 371.731 25.9911 372.628 26.8691C373.524 27.7471 374.75 28.1862 376.286 28.1862C378.445 28.1862 380.237 27.3447 381.664 25.6618C381.865 26.0825 382.048 26.4301 382.231 26.7411C382.414 27.0337 382.634 27.3264 382.89 27.6008C383.073 27.7654 383.256 27.8569 383.439 27.8569C383.585 27.8569 383.75 27.802 383.914 27.6923L385.067 26.924C385.304 26.7411 385.414 26.5581 385.414 26.3752C385.414 26.2472 385.378 26.1008 385.286 25.9545C385.03 25.4789 384.847 25.0399 384.701 24.6374ZM378.957 25.4606C378.298 25.6801 377.676 25.7899 377.073 25.7899C376.231 25.7899 375.591 25.5703 375.152 25.113C374.695 24.674 374.475 24.0338 374.475 23.174C374.475 22.2594 374.768 21.5643 375.372 21.0704C375.975 20.5765 376.872 20.3387 378.097 20.3387C378.664 20.3387 379.231 20.3753 379.817 20.4485C380.402 20.5216 380.969 20.6314 381.5 20.7594V21.5277C381.5 22.1497 381.426 22.6801 381.317 23.1192C381.207 23.5582 380.987 23.9423 380.695 24.2899C380.201 24.8386 379.615 25.2411 378.957 25.4606Z" fill="white"/>
<path d="M391.067 27.5825C391.213 27.7106 391.432 27.7654 391.762 27.7654H393.335C393.664 27.7654 393.92 27.7106 394.066 27.5825C394.213 27.4545 394.323 27.2167 394.414 26.8508L397.231 15.0705L400.066 26.8691C400.14 27.235 400.268 27.4728 400.414 27.6008C400.56 27.7289 400.798 27.7837 401.146 27.7837H402.719C403.03 27.7837 403.268 27.7106 403.414 27.6008C403.56 27.4911 403.688 27.2532 403.798 26.8874L408.207 12.7474C408.28 12.5461 408.316 12.3998 408.335 12.29C408.337 12.274 408.34 12.2584 408.343 12.2431C408.358 12.1536 408.371 12.0755 408.371 11.9974C408.371 11.6864 408.207 11.5401 407.914 11.5401H406.213C405.883 11.5401 405.646 11.6132 405.499 11.723C405.371 11.8327 405.243 12.0705 405.133 12.4364L401.969 24.6923L399.079 12.4364C399.005 12.0888 398.877 11.8327 398.731 11.723C398.585 11.5949 398.347 11.5401 397.999 11.5401H396.536C396.207 11.5401 395.951 11.6132 395.804 11.723C395.658 11.8327 395.548 12.0705 395.457 12.4364L392.603 24.546L389.53 12.4364C389.42 12.0888 389.31 11.8327 389.164 11.723C389.036 11.5949 388.798 11.5401 388.451 11.5401H386.658C386.365 11.5401 386.219 11.7047 386.219 11.9974C386.219 12.1254 386.274 12.3632 386.384 12.7291L390.682 26.8691C390.792 27.2167 390.92 27.4728 391.067 27.5825Z" fill="white"/>
<path d="M412.45 27.9301C413.365 28.1496 414.316 28.2593 415.267 28.2593C416.2 28.2593 417.06 28.1313 417.883 27.8752C418.67 27.6374 419.347 27.3081 419.914 26.8508C420.481 26.4118 420.92 25.863 421.249 25.2411C421.56 24.6191 421.725 23.9057 421.725 23.1192C421.725 22.168 421.45 21.3082 420.883 20.5582C420.316 19.8082 419.365 19.2229 418.048 18.8021L415.45 17.979C414.481 17.668 413.804 17.3205 413.438 16.9729C413.072 16.6253 412.889 16.1863 412.889 15.6741C412.889 14.9242 413.182 14.3937 413.749 14.0461C414.316 13.6986 415.139 13.5339 416.182 13.5339C417.481 13.5339 418.652 13.7717 419.694 14.2473C420.005 14.3937 420.243 14.4668 420.389 14.4668C420.664 14.4668 420.81 14.2656 420.81 13.8815V13.0217C420.81 12.7656 420.755 12.5644 420.645 12.4181C420.536 12.2535 420.353 12.1071 420.097 11.9608C419.914 11.851 419.658 11.7413 419.328 11.6315C418.999 11.5218 418.652 11.4303 418.286 11.3388C417.902 11.2657 417.517 11.1925 417.097 11.1376C416.694 11.0827 416.273 11.0645 415.871 11.0645C415.066 11.0645 414.298 11.1559 413.566 11.3754C412.835 11.5949 412.213 11.9059 411.664 12.3266C411.115 12.7291 410.676 13.2413 410.347 13.8266C410.017 14.412 409.853 15.0888 409.853 15.8571C409.853 16.8083 410.164 17.7046 410.767 18.5095C411.371 19.3326 412.359 19.9546 413.694 20.3753L416.347 21.1985C417.243 21.4911 417.865 21.8021 418.194 22.1497C418.523 22.4972 418.688 22.9179 418.688 23.4301C418.688 24.1801 418.359 24.7655 417.737 25.1679C417.115 25.5703 416.219 25.7716 415.066 25.7716C414.334 25.7716 413.621 25.6984 412.889 25.5521C412.176 25.4057 411.499 25.1862 410.877 24.9118C410.812 24.8859 410.75 24.86 410.691 24.8357C410.585 24.7914 410.491 24.7525 410.42 24.7289C410.31 24.6923 410.2 24.674 410.091 24.674C409.816 24.674 409.67 24.8569 409.67 25.2411V26.174C409.67 26.3386 409.707 26.5216 409.78 26.6862C409.853 26.8508 410.054 27.0337 410.347 27.1984C410.822 27.4728 411.536 27.7106 412.45 27.9301Z" fill="white"/>
<path d="M396.444 43.9542C403.963 43.9542 412.706 41.5945 418.725 37.1494C419.712 36.4178 418.853 35.3019 417.847 35.7592C411.097 38.6128 403.761 40.0031 397.085 40.0031C387.189 40.0031 377.622 37.2775 369.866 32.7776C369.189 32.3751 368.677 33.0702 369.244 33.5824C376.414 40.0579 385.908 43.9542 396.444 43.9542Z" fill="white"/>
<path d="M414.188 34.058C416.145 33.8202 420.462 33.308 421.231 34.2958C421.999 35.2653 420.371 39.3445 419.639 41.1555C419.42 41.7043 419.895 41.9238 420.389 41.503C423.609 38.7958 424.45 33.1434 423.792 32.3202C423.133 31.5154 417.481 30.8203 414.042 33.2349C413.511 33.619 413.603 34.1312 414.188 34.058Z" fill="white"/>
<path d="M517.699 0.0148007C517.581 0.0255518 517.204 0.0631807 516.866 0.0900585C509.054 0.794256 501.737 5.00869 497.102 11.4862C494.522 15.0879 492.871 19.1733 492.247 23.5006C492.027 25.0111 492 25.4573 492 27.5054C492 29.5535 492.027 29.9996 492.247 31.5102C493.742 41.8366 501.091 50.5128 511.059 53.7273C512.844 54.3025 514.726 54.6949 516.866 54.9315C517.699 55.0228 521.301 55.0228 522.134 54.9315C525.828 54.5229 528.957 53.6091 532.043 52.034C532.516 51.7921 532.608 51.7276 532.543 51.6739C532.5 51.6416 530.484 48.9377 528.065 45.6694L523.667 39.7294L518.156 31.5747C515.124 27.0915 512.629 23.4253 512.608 23.4253C512.586 23.42 512.565 27.0431 512.554 31.4672C512.538 39.2133 512.532 39.5251 512.435 39.7079C512.296 39.9713 512.188 40.0788 511.962 40.1971C511.79 40.2831 511.64 40.2992 510.828 40.2992H509.898L509.651 40.1433C509.489 40.0412 509.371 39.9068 509.29 39.7509L509.177 39.509L509.188 28.731L509.204 17.9476L509.371 17.738C509.457 17.6251 509.64 17.48 509.769 17.4101C509.989 17.3026 510.075 17.2918 511.005 17.2918C512.102 17.2918 512.285 17.3348 512.57 17.6466C512.651 17.7326 515.634 22.2266 519.204 27.6398C522.774 33.053 527.656 40.4443 530.054 44.0728L534.409 50.6686L534.629 50.5235C536.581 49.2549 538.645 47.4487 540.28 45.5672C543.758 41.5732 546 36.703 546.753 31.5102C546.973 29.9996 547 29.5535 547 27.5054C547 25.4573 546.973 25.0111 546.753 23.5006C545.258 13.1742 537.909 4.49801 527.941 1.28343C526.183 0.713623 524.312 0.321207 522.215 0.0846829C521.699 0.0309274 518.145 -0.0282037 517.699 0.0148007ZM528.957 16.6468C529.215 16.7758 529.425 17.0231 529.5 17.2811C529.543 17.4208 529.554 20.4097 529.543 27.1452L529.527 36.8105L527.823 34.1979L526.113 31.5854V24.5596C526.113 20.0172 526.134 17.4638 526.167 17.3402C526.253 17.0392 526.441 16.8027 526.699 16.6629C526.919 16.55 527 16.5393 527.844 16.5393C528.64 16.5393 528.78 16.55 528.957 16.6468Z" fill="white"/>
<circle cx="642.5" cy="27.5" r="27.5" fill="white"/>
<circle cx="642.5" cy="27.5" r="27.5" stroke="black"/>
<path d="M651.813 21.2819V16.9339C652.388 16.6648 652.875 16.2381 653.218 15.7032C653.561 15.1683 653.744 14.5472 653.748 13.9119V13.8096C653.746 12.9216 653.392 12.0706 652.764 11.4426C652.137 10.8145 651.286 10.4604 650.398 10.4576H650.295C649.408 10.4604 648.557 10.8143 647.929 11.4421C647.302 12.0698 646.948 12.9203 646.945 13.808V13.9104C646.948 14.5419 647.129 15.1599 647.467 15.6931C647.806 16.2263 648.288 16.6532 648.858 16.9247L648.878 16.9339V21.2911C647.215 21.5451 645.65 22.2357 644.342 23.2925L644.36 23.2772L632.401 13.9654C632.628 13.1124 632.553 12.2068 632.188 11.403C631.822 10.5993 631.19 9.9471 630.397 9.55773C629.605 9.16835 628.702 9.06588 627.842 9.26777C626.983 9.46967 626.22 9.96344 625.684 10.6649C625.148 11.3663 624.871 12.232 624.902 13.1144C624.933 13.9967 625.269 14.8411 625.852 15.5036C626.436 16.166 627.232 16.6055 628.103 16.747C628.974 16.8886 629.868 16.7236 630.631 16.28L630.613 16.2892L642.372 25.4421C641.333 27.0006 640.781 28.8334 640.787 30.7068C640.784 32.6811 641.397 34.6073 642.539 36.2175L642.519 36.187L638.941 39.7665C638.655 39.6741 638.356 39.6252 638.055 39.6214H638.052C637.438 39.6214 636.837 39.8036 636.326 40.1449C635.815 40.4861 635.417 40.9712 635.182 41.5388C634.947 42.1063 634.886 42.7308 635.006 43.3333C635.125 43.9358 635.421 44.4893 635.856 44.9236C636.29 45.358 636.843 45.6538 637.446 45.7737C638.048 45.8935 638.673 45.832 639.24 45.5969C639.808 45.3618 640.293 44.9637 640.634 44.453C640.976 43.9422 641.158 43.3417 641.158 42.7274C641.154 42.4183 641.102 42.1118 641.005 41.8184L641.013 41.8397L644.553 38.2999C645.706 39.1803 647.046 39.7859 648.469 40.0708C649.892 40.3556 651.361 40.3122 652.765 39.9438C654.169 39.5754 655.47 38.8917 656.57 37.9447C657.669 36.9977 658.539 35.8123 659.112 34.4788C659.684 33.1453 659.945 31.6987 659.875 30.2491C659.804 28.7995 659.404 27.3851 658.705 26.1134C658.006 24.8417 657.025 23.7463 655.839 22.9104C654.653 22.0745 653.291 21.5202 651.858 21.2896L651.803 21.2819H651.813ZM650.34 35.6095C649.372 35.6067 648.426 35.3172 647.622 34.7774C646.819 34.2376 646.193 33.4718 645.825 32.5766C645.456 31.6815 645.361 30.6972 645.551 29.748C645.742 28.7988 646.209 27.9273 646.894 27.2436C647.58 26.56 648.452 26.0947 649.402 25.9067C650.352 25.7186 651.336 25.8162 652.23 26.1871C653.124 26.558 653.889 27.1855 654.426 27.9905C654.964 28.7955 655.251 29.7418 655.252 30.7099V30.7129C655.252 31.3564 655.125 31.9936 654.879 32.5882C654.633 33.1827 654.272 33.7229 653.817 34.1779C653.362 34.6329 652.822 34.9938 652.227 35.24C651.633 35.4861 650.995 35.6127 650.352 35.6125L650.34 35.6095Z" fill="black"/>
<path d="M770.283 52.7469L760.736 43.4376L781.24 22.5004L791.124 32.1878L770.283 52.7469Z" fill="white"/>
<path d="M770.324 11.5881L760.811 1.87573L740.011 22.4786C737.33 25.1598 737.33 29.5066 740.011 32.1909L760.499 52.8125L770.186 43.7501L754.577 27.3347L770.324 11.5881Z" fill="#DDD9D9"/>
<path d="M790.987 22.638L770.361 2.01325C767.677 -0.671084 763.324 -0.671084 760.639 2.01325C757.955 4.69759 757.955 9.05065 760.639 11.735L781.265 32.3597C783.949 35.044 788.302 35.044 790.987 32.3597C793.671 29.6754 793.671 25.3223 790.987 22.638Z" fill="white"/>
<path d="M765.342 55.0001C769.053 55.0001 772.061 51.992 772.061 48.2814C772.061 44.5708 769.053 41.5627 765.342 41.5627C761.632 41.5627 758.624 44.5708 758.624 48.2814C758.624 51.992 761.632 55.0001 765.342 55.0001Z" fill="#BCB7B7"/>
<defs>
<clipPath id="clip0_901_1427">
<rect width="55" height="55" fill="white" transform="translate(123)"/>
</clipPath>
</defs>
</svg>
